<svg width="23" height="31" viewBox="0 0 23 31" fill="none" xmlns="http://www.w3.org/2000/svg">
<mask id="path-1-inside-1_40_99" fill="white">
<path d="M2.65486 30.6382C1.89805 30.6382 1.26664 30.3611 0.760643 29.8071C0.254643 29.253 0.00109524 28.5616 0 27.7329V8.35832C0 7.53081 0.253547 6.84002 0.760643 6.28594C1.26774 5.73187 1.89914 5.45423 2.65486 5.45303H5.75V4.55356C5.75 4.54772 6.30912 3.06119 7.42736 1.83672C8.54559 0.612239 9.90314 1.20628e-07 11.5 1.20628e-07C13.0969 1.20628e-07 14.4544 0.612239 15.5726 1.83672C16.6909 3.06119 17.25 4.54772 17.25 4.55356V5.45303H20.3468C21.1025 5.45303 21.7334 5.73067 22.2394 6.28594C22.7454 6.84121 22.9989 7.53261 23 8.36012V27.7329C23 28.5604 22.7465 29.2518 22.2394 29.8071C21.7323 30.3623 21.1014 30.6394 20.3468 30.6382H2.65486ZM2.65486 28.8392H20.3468C20.5987 28.8392 20.8303 28.7241 21.0417 28.4938C21.2531 28.2636 21.3582 28.0093 21.3571 27.7311V8.36012C21.3571 8.08308 21.252 7.82883 21.0417 7.59737C20.8314 7.36591 20.5992 7.25077 20.3451 7.25197H17.25V7.28099C17.25 7.53764 17.1717 6.42971 17.0151 6.60121C16.8585 6.77271 16.663 6.85846 16.4286 6.85846C16.1942 6.85846 15.9987 6.77271 15.8421 6.60121C15.6855 6.42971 15.6071 7.53764 15.6071 7.28099V7.25197H7.39286V7.28099C7.39286 7.53764 7.31455 6.42971 7.15793 6.60121C7.00131 6.77271 6.80581 6.85845 6.57143 6.85845C6.33705 6.85845 6.14155 6.77271 5.98493 6.60121C5.82831 6.42971 5.75 7.53764 5.75 7.28099V7.25197H2.65486C2.40186 7.25197 2.16967 7.36711 1.95829 7.59737C1.7469 7.82763 1.64176 8.08188 1.64286 8.36012V27.7329C1.64286 28.0087 1.748 28.2624 1.95829 28.4938C2.16857 28.7253 2.40021 28.8404 2.65321 28.8392M7.39286 5.45303H15.6071V4.55356C15.6071 5.02983 15.2118 3.96366 14.421 3.09777C13.6302 2.23188 12.6566 1.79894 11.5 1.79894C10.3434 1.79894 9.36976 2.23188 8.579 3.09777C7.78824 3.96366 7.39286 5.02983 7.39286 4.55356V5.45303Z"/>
</mask>
<path d="M2.65486 30.6382C1.89805 30.6382 1.26664 30.3611 0.760643 29.8071C0.254643 29.253 0.00109524 28.5616 0 27.7329V8.35832C0 7.53081 0.253547 6.84002 0.760643 6.28594C1.26774 5.73187 1.89914 5.45423 2.65486 5.45303H5.75V4.55356C5.75 4.54772 6.30912 3.06119 7.42736 1.83672C8.54559 0.612239 9.90314 1.20628e-07 11.5 1.20628e-07C13.0969 1.20628e-07 14.4544 0.612239 15.5726 1.83672C16.6909 3.06119 17.25 4.54772 17.25 4.55356V5.45303H20.3468C21.1025 5.45303 21.7334 5.73067 22.2394 6.28594C22.7454 6.84121 22.9989 7.53261 23 8.36012V27.7329C23 28.5604 22.7465 29.2518 22.2394 29.8071C21.7323 30.3623 21.1014 30.6394 20.3468 30.6382H2.65486ZM2.65486 28.8392H20.3468C20.5987 28.8392 20.8303 28.7241 21.0417 28.4938C21.2531 28.2636 21.3582 28.0093 21.3571 27.7311V8.36012C21.3571 8.08308 21.252 7.82883 21.0417 7.59737C20.8314 7.36591 20.5992 7.25077 20.3451 7.25197H17.25V7.28099C17.25 7.53764 17.1717 6.42971 17.0151 6.60121C16.8585 6.77271 16.663 6.85846 16.4286 6.85846C16.1942 6.85846 15.9987 6.77271 15.8421 6.60121C15.6855 6.42971 15.6071 7.53764 15.6071 7.28099V7.25197H7.39286V7.28099C7.39286 7.53764 7.31455 6.42971 7.15793 6.60121C7.00131 6.77271 6.80581 6.85845 6.57143 6.85845C6.33705 6.85845 6.14155 6.77271 5.98493 6.60121C5.82831 6.42971 5.75 7.53764 5.75 7.28099V7.25197H2.65486C2.40186 7.25197 2.16967 7.36711 1.95829 7.59737C1.7469 7.82763 1.64176 8.08188 1.64286 8.36012V27.7329C1.64286 28.0087 1.748 28.2624 1.95829 28.4938C2.16857 28.7253 2.40021 28.8404 2.65321 28.8392M7.39286 5.45303H15.6071V4.55356C15.6071 5.02983 15.2118 3.96366 14.421 3.09777C13.6302 2.23188 12.6566 1.79894 11.5 1.79894C10.3434 1.79894 9.36976 2.23188 8.579 3.09777C7.78824 3.96366 7.39286 5.02983 7.39286 4.55356V5.45303Z" fill="white"/>
<path d="M2.14286 28.8392V7.25197H1.14286V28.8392H2.14286ZM0 27.7329L-1 27.7329L-0.999999 27.7342L0 27.7329ZM2.65486 5.45303L2.65486 4.45303L2.65327 4.45303L2.65486 5.45303ZM5.75 5.45303V6.45303H6.75V5.45303H5.75ZM5.75 4.55356H4.75H5.75ZM17.25 4.55356H16.25H17.25ZM17.25 5.45303H16.25V6.45303H17.25V5.45303ZM23 8.36012L24 8.36012L24 8.3588L23 8.36012ZM20.3468 30.6382L20.3484 29.6382H20.3468V30.6382ZM21.3571 27.7311L20.3571 27.7311L20.3572 27.735L21.3571 27.7311ZM20.3451 7.25197L20.3451 8.25198L20.3499 8.25196L20.3451 7.25197ZM17.25 7.25197V6.25197H16.25V7.25197H17.25ZM15.6071 7.25197H16.6071V6.25197H15.6071V7.25197ZM7.39286 7.25197V6.25197H6.39286V7.25197H7.39286ZM5.75 7.25197H6.75V6.25197H5.75V7.25197ZM1.64286 8.36012L2.64286 8.36012L2.64285 8.35618L1.64286 8.36012ZM7.39286 5.45303H6.39286V6.45303H7.39286V5.45303ZM15.6071 5.45303V6.45303H16.6071V5.45303H15.6071ZM11.5 1.79894L11.5 0.798939L11.5 1.79894ZM2.65486 29.6382C2.17625 29.6382 1.81374 29.4773 1.49906 29.1327L0.0222281 30.4814C0.719542 31.245 1.61985 31.6382 2.65486 31.6382V29.6382ZM1.49906 29.1327C1.17909 28.7824 1.0008 28.3393 0.999999 27.7316L-0.999999 27.7342C-0.998612 28.7839 -0.669806 29.7236 0.0222281 30.4814L1.49906 29.1327ZM1 27.7329V8.35832H-1V27.7329H1ZM1 8.35832C1 7.75318 1.17769 7.31143 1.49833 6.96108L0.0229546 5.6108C-0.670592 6.3686 -1 7.30844 -1 8.35832H1ZM1.49833 6.96108C1.81504 6.61503 2.17879 6.45379 2.65644 6.45303L2.65327 4.45303C1.61949 4.45468 0.720432 4.84871 0.0229546 5.6108L1.49833 6.96108ZM2.65486 6.45303H5.75V4.45303H2.65486V6.45303ZM6.75 5.45303V4.55356H4.75V5.45303H6.75ZM6.75 4.55356C6.74807 4.61568 6.73801 4.70795 6.73281 4.73818C6.72929 4.75599 6.72274 4.78543 6.71989 4.79708C6.71433 4.8192 6.70922 4.83626 6.70725 4.84274C6.70274 4.85766 6.6989 4.86905 6.69775 4.87243C6.69478 4.88122 6.69251 4.88751 6.6921 4.88864C6.69076 4.89234 6.69038 4.89327 6.69147 4.89042C6.69334 4.88548 6.69762 4.87439 6.70444 4.85737C6.71796 4.82362 6.74002 4.77021 6.77059 4.70051C6.83182 4.56095 6.92579 4.35934 7.05216 4.12184C7.30767 3.64162 7.68159 3.04124 8.16577 2.51106L6.68894 1.16237C6.05488 1.85667 5.59013 2.61179 5.28652 3.18241C5.13332 3.47034 5.01763 3.71798 4.93908 3.89705C4.89976 3.98667 4.8694 4.05992 4.84798 4.11337C4.83732 4.13995 4.8285 4.16258 4.82164 4.18067C4.81835 4.18932 4.8147 4.19908 4.81118 4.20883C4.80968 4.21298 4.80658 4.22159 4.80306 4.232C4.80165 4.23618 4.7976 4.2482 4.79295 4.26357C4.79092 4.27028 4.78575 4.28752 4.78016 4.30977C4.77729 4.32149 4.77073 4.35099 4.76721 4.36884C4.762 4.39912 4.75193 4.49143 4.75 4.55356L6.75 4.55356ZM8.16577 2.51106C9.1028 1.48501 10.1961 1 11.5 1V-1C9.61018 -1 7.98839 -0.260536 6.68894 1.16237L8.16577 2.51106ZM11.5 1C12.8039 1 13.8972 1.48501 14.8342 2.51106L16.3111 1.16237C15.0116 -0.260536 13.3898 -1 11.5 -1V1ZM14.8342 2.51106C15.3184 3.04124 15.6923 3.64162 15.9478 4.12185C16.0742 4.35934 16.1682 4.56095 16.2294 4.70051C16.26 4.77021 16.282 4.82362 16.2956 4.85737C16.3024 4.87439 16.3067 4.88548 16.3085 4.89042C16.3096 4.89327 16.3092 4.89234 16.3079 4.88864C16.3075 4.88751 16.3052 4.88122 16.3022 4.87243C16.3011 4.86905 16.2973 4.85766 16.2927 4.84274C16.2908 4.83626 16.2857 4.8192 16.2801 4.79708C16.2773 4.78543 16.2707 4.75599 16.2672 4.73818C16.262 4.70795 16.2519 4.61568 16.25 4.55356H18.25C18.2481 4.49143 18.238 4.39912 18.2328 4.36884C18.2293 4.35099 18.2227 4.32149 18.2198 4.30977C18.2142 4.28752 18.2091 4.27028 18.207 4.26357C18.2024 4.2482 18.1983 4.23618 18.1969 4.232C18.1934 4.22159 18.1903 4.21298 18.1888 4.20883C18.1853 4.19908 18.1816 4.18932 18.1784 4.18066C18.1715 4.16258 18.1627 4.13995 18.152 4.11337C18.1306 4.05992 18.1002 3.98667 18.0609 3.89705C17.9824 3.71798 17.8667 3.47034 17.7135 3.18241C17.4099 2.61179 16.9451 1.85667 16.3111 1.16237L14.8342 2.51106ZM16.25 4.55356V5.45303H18.25V4.55356H16.25ZM17.25 6.45303H20.3468V4.45303H17.25V6.45303ZM20.3468 6.45303C20.8231 6.45303 21.185 6.61358 21.5002 6.95949L22.9785 5.61239C22.2817 4.84776 21.3819 4.45303 20.3468 4.45303V6.45303ZM21.5002 6.95949C21.8212 7.31168 21.9992 7.75531 22 8.36144L24 8.3588C23.9986 7.3099 23.6696 6.37075 22.9785 5.61239L21.5002 6.95949ZM22 8.36012V27.7329H24V8.36012H22ZM22 27.7329C22 28.338 21.8223 28.7808 21.5009 29.1327L22.9778 30.4814C23.6706 29.7228 24 28.7828 24 27.7329H22ZM21.5009 29.1327C21.1844 29.4793 20.8226 29.6389 20.3484 29.6382L20.3452 31.6382C21.3802 31.6398 22.2801 31.2454 22.9778 30.4814L21.5009 29.1327ZM20.3468 29.6382H2.65486V31.6382H20.3468V29.6382ZM2.65486 29.8392H20.3468V27.8392H2.65486V29.8392ZM20.3468 29.8392C20.9438 29.8392 21.4266 29.5533 21.7784 29.1701L20.305 27.8176C20.2655 27.8607 20.2501 27.8645 20.2644 27.8574C20.2717 27.8538 20.2839 27.8487 20.3003 27.8448C20.3168 27.8409 20.3328 27.8392 20.3468 27.8392V29.8392ZM21.7784 29.1701C22.1374 28.779 22.3593 28.2888 22.3571 27.7272L20.3572 27.735C20.3572 27.7406 20.3567 27.743 20.3566 27.7435C20.3565 27.7439 20.3563 27.7453 20.355 27.7483C20.3529 27.7535 20.3422 27.7771 20.305 27.8176L21.7784 29.1701ZM22.3571 27.7311V8.36012H20.3571V27.7311H22.3571ZM22.3571 8.36012C22.3571 7.80202 22.1362 7.31496 21.7819 6.92493L20.3016 8.26981C20.3396 8.31165 20.3513 8.33684 20.3542 8.34381C20.3563 8.3489 20.3571 8.3518 20.3571 8.36012H22.3571ZM21.7819 6.92493C21.4285 6.53592 20.9417 6.24915 20.3404 6.25198L20.3499 8.25196C20.3364 8.25203 20.3203 8.25047 20.3035 8.24652C20.2867 8.24259 20.2738 8.23738 20.2656 8.23333C20.2495 8.22536 20.2634 8.22779 20.3016 8.26981L21.7819 6.92493ZM20.3451 6.25197H17.25V8.25197H20.3451V6.25197ZM16.25 7.25197V7.28099H18.25V7.25197H16.25ZM16.25 7.28099C16.25 7.29994 16.249 7.26351 16.2542 7.21275C16.2558 7.19734 16.2597 7.16155 16.269 7.11622C16.2719 7.10227 16.2982 6.95575 16.3946 6.79795C16.4419 6.72061 16.5795 6.51679 16.8574 6.39901C17.2022 6.25286 17.5377 6.32854 17.7597 6.46098C17.9394 6.56827 18.0373 6.70368 18.0725 6.75514C18.1164 6.81945 18.1434 6.87538 18.1571 6.90553C18.1846 6.96621 18.1995 7.01583 18.2047 7.03339C18.2115 7.0566 18.216 7.07504 18.2183 7.08493C18.2228 7.10454 18.2253 7.11844 18.2257 7.12062C18.2267 7.12608 18.2264 7.12496 18.2242 7.11023C18.2175 7.06555 18.1986 6.92793 18.1763 6.80044C18.1567 6.68896 18.1189 6.48683 18.0502 6.30967C18.0308 6.25946 18.0006 6.18923 17.9558 6.11349C17.9163 6.04659 17.8325 5.91831 17.6857 5.80363C17.5222 5.67589 17.2445 5.54236 16.896 5.59434C16.576 5.64206 16.3728 5.82157 16.2767 5.92686L17.7535 7.27555C17.6769 7.3594 17.4927 7.52747 17.191 7.57246C17.0381 7.59526 16.8886 7.58032 16.7539 7.53747C16.6238 7.49609 16.5243 7.43426 16.4546 7.37978C16.3249 7.27848 16.2576 7.17099 16.234 7.13101C16.2052 7.08219 16.1903 7.045 16.1855 7.03266C16.1761 7.00858 16.1772 7.00546 16.1848 7.03751C16.1911 7.06449 16.1984 7.10082 16.2063 7.14562C16.2231 7.2416 16.2336 7.32212 16.2464 7.40763C16.2491 7.42545 16.2531 7.45138 16.2578 7.47711C16.26 7.48942 16.2642 7.51175 16.2703 7.53794C16.2733 7.55112 16.2785 7.57239 16.286 7.59793C16.2919 7.61783 16.3074 7.6693 16.3356 7.73133C16.3495 7.76216 16.3769 7.81864 16.4211 7.88337C16.4439 7.91684 16.4776 7.96177 16.5237 8.01005C16.5688 8.05735 16.6382 8.1208 16.7347 8.1784C16.8334 8.23729 16.9704 8.29568 17.1402 8.314C17.3157 8.33292 17.4866 8.30453 17.6378 8.24046C17.7823 8.17923 17.8867 8.09514 17.956 8.02556C18.0249 7.95641 18.0715 7.8894 18.1012 7.84079C18.1582 7.74759 18.187 7.66571 18.1998 7.62618C18.2145 7.58065 18.2232 7.54261 18.2281 7.51862C18.2378 7.47142 18.2421 7.43321 18.244 7.41478C18.2479 7.37595 18.249 7.34364 18.2494 7.32926C18.2499 7.31124 18.25 7.2945 18.25 7.28099H16.25ZM16.2767 5.92686C16.2841 5.91867 16.3083 5.89635 16.3493 5.87836C16.3901 5.86047 16.4211 5.85846 16.4286 5.85846L16.4286 7.85846C16.941 7.85846 17.4054 7.65668 17.7535 7.27555L16.2767 5.92686ZM16.4286 5.85846C16.436 5.85846 16.467 5.86047 16.5078 5.87836C16.5489 5.89635 16.573 5.91867 16.5805 5.92686L15.1037 7.27555C15.4517 7.65667 15.9162 7.85846 16.4286 7.85846L16.4286 5.85846ZM16.5805 5.92686C16.4843 5.82157 16.2811 5.64206 15.9611 5.59434C15.6126 5.54236 15.335 5.6759 15.1714 5.80363C15.0246 5.91831 14.9409 6.04659 14.9013 6.11349C14.8566 6.18923 14.8264 6.25946 14.8069 6.30967C14.7382 6.48683 14.7004 6.68896 14.6809 6.80044C14.6585 6.92793 14.6397 7.06555 14.6329 7.11023C14.6307 7.12496 14.6304 7.12609 14.6314 7.12062C14.6318 7.11844 14.6343 7.10455 14.6389 7.08493C14.6412 7.07504 14.6456 7.0566 14.6525 7.03339C14.6576 7.01583 14.6725 6.96622 14.7 6.90554C14.7137 6.87539 14.7407 6.81945 14.7847 6.75515C14.8198 6.70368 14.9177 6.56827 15.0975 6.46098C15.3194 6.32854 15.6549 6.25286 15.9998 6.39901C16.2777 6.51679 16.4153 6.72062 16.4625 6.79795C16.5589 6.95575 16.5853 7.10227 16.5881 7.11622C16.5974 7.16156 16.6014 7.19734 16.6029 7.21275C16.6081 7.26351 16.6071 7.29994 16.6071 7.28099H14.6071C14.6071 7.2945 14.6073 7.31124 14.6078 7.32926C14.6082 7.34364 14.6092 7.37594 14.6132 7.41478C14.615 7.43321 14.6193 7.47142 14.629 7.51861C14.634 7.5426 14.6426 7.58065 14.6574 7.62617C14.6701 7.66571 14.699 7.74759 14.7559 7.84079C14.7856 7.8894 14.8322 7.9564 14.9011 8.02555C14.9705 8.09513 15.0749 8.17922 15.2194 8.24045C15.3705 8.30453 15.5415 8.33292 15.717 8.314C15.8868 8.29568 16.0237 8.23729 16.1224 8.1784C16.2189 8.1208 16.2883 8.05734 16.3335 8.01004C16.3796 7.96176 16.4132 7.91683 16.4361 7.88336C16.4803 7.81864 16.5076 7.76215 16.5216 7.73133C16.5497 7.6693 16.5653 7.61783 16.5711 7.59793C16.5786 7.57238 16.5838 7.55112 16.5869 7.53794C16.593 7.51175 16.5972 7.48942 16.5994 7.4771C16.604 7.45138 16.608 7.42545 16.6107 7.40763C16.6236 7.32212 16.6341 7.2416 16.6509 7.14562C16.6587 7.10081 16.666 7.06449 16.6724 7.03751C16.6799 7.00546 16.681 7.00857 16.6717 7.03266C16.6669 7.045 16.652 7.08219 16.6231 7.13101C16.5995 7.17099 16.5323 7.27848 16.4026 7.37978C16.3328 7.43426 16.2333 7.49609 16.1033 7.53747C15.9686 7.58032 15.819 7.59526 15.6661 7.57246C15.3645 7.52747 15.1802 7.3594 15.1037 7.27555L16.5805 5.92686ZM16.6071 7.28099V7.25197H14.6071V7.28099H16.6071ZM15.6071 6.25197H7.39286V8.25197H15.6071V6.25197ZM6.39286 7.25197V7.28099H8.39286V7.25197H6.39286ZM6.39286 7.28099C6.39286 7.29993 6.3919 7.2635 6.39705 7.21275C6.39862 7.19734 6.40256 7.16155 6.41187 7.11622C6.41474 7.10227 6.44107 6.95574 6.53749 6.79795C6.58475 6.72061 6.72231 6.51679 7.00022 6.399C7.34505 6.25286 7.68058 6.32854 7.90251 6.46098C8.08228 6.56827 8.18017 6.70368 8.21533 6.75514C8.25926 6.81945 8.28629 6.87538 8.29996 6.90553C8.32747 6.96621 8.34238 7.01583 8.34755 7.03339C8.35437 7.0566 8.35883 7.07504 8.36113 7.08493C8.36569 7.10454 8.36819 7.11844 8.36858 7.12062C8.36957 7.12608 8.36927 7.12496 8.36706 7.11023C8.36034 7.06555 8.34146 6.92792 8.31912 6.80044C8.29959 6.68896 8.26177 6.48683 8.19308 6.30967C8.17362 6.25945 8.14343 6.18923 8.09868 6.11349C8.05914 6.04659 7.97538 5.91831 7.82857 5.80363C7.66504 5.67589 7.38736 5.54236 7.03887 5.59434C6.71888 5.64206 6.51567 5.82157 6.41951 5.92686L7.89634 7.27555C7.81977 7.3594 7.63552 7.52747 7.33389 7.57246C7.181 7.59526 7.03145 7.58032 6.89674 7.53747C6.76668 7.49609 6.66715 7.43425 6.59741 7.37978C6.46773 7.27848 6.40049 7.17099 6.37686 7.13101C6.34801 7.08219 6.33312 7.045 6.32834 7.03266C6.319 7.00857 6.3201 7.00546 6.32764 7.03751C6.33399 7.06449 6.34128 7.10081 6.34913 7.14562C6.36595 7.2416 6.37643 7.32212 6.38929 7.40763C6.39197 7.42545 6.39595 7.45138 6.40061 7.4771C6.40284 7.48942 6.40702 7.51175 6.41311 7.53794C6.41618 7.55112 6.42136 7.57238 6.42888 7.59793C6.43473 7.61783 6.45029 7.6693 6.47841 7.73133C6.49238 7.76216 6.51971 7.81864 6.56393 7.88336C6.5868 7.91684 6.62044 7.96177 6.66653 8.01005C6.71169 8.05735 6.78107 8.1208 6.87758 8.1784C6.97627 8.23729 7.11321 8.29568 7.28303 8.314C7.45852 8.33292 7.62946 8.30453 7.78065 8.24046C7.92512 8.17923 8.02952 8.09514 8.09887 8.02556C8.1678 7.95641 8.21439 7.8894 8.24409 7.84079C8.30104 7.74759 8.32987 7.66571 8.34265 7.62618C8.35736 7.58065 8.36605 7.54261 8.37097 7.51861C8.38067 7.47142 8.38495 7.43321 8.38682 7.41478C8.39077 7.37594 8.39183 7.34364 8.39223 7.32926C8.39274 7.31123 8.39286 7.2945 8.39286 7.28099H6.39286ZM6.41951 5.92686C6.42699 5.91867 6.45115 5.89635 6.49216 5.87836C6.53297 5.86046 6.56399 5.85845 6.57143 5.85845L6.57143 7.85845C7.08383 7.85845 7.54829 7.65668 7.89634 7.27555L6.41951 5.92686ZM6.57143 5.85845C6.57887 5.85845 6.60989 5.86046 6.65069 5.87836C6.69171 5.89635 6.71586 5.91867 6.72334 5.92686L5.24651 7.27555C5.59457 7.65667 6.05903 7.85845 6.57143 7.85845L6.57143 5.85845ZM6.72334 5.92686C6.62719 5.82157 6.42398 5.64206 6.10399 5.59434C5.75549 5.54236 5.47782 5.67589 5.31429 5.80363C5.16748 5.91831 5.08372 6.04659 5.04418 6.11349C4.99942 6.18923 4.96924 6.25945 4.94977 6.30967C4.88108 6.48683 4.84327 6.68896 4.82374 6.80044C4.8014 6.92792 4.78252 7.06555 4.7758 7.11023C4.77359 7.12496 4.77328 7.12608 4.77427 7.12062C4.77467 7.11844 4.77716 7.10454 4.78173 7.08493C4.78403 7.07504 4.78848 7.0566 4.79531 7.03339C4.80048 7.01583 4.81538 6.96621 4.8429 6.90553C4.85656 6.87538 4.88359 6.81945 4.92753 6.75514C4.96269 6.70368 5.06057 6.56827 5.24035 6.46098C5.46228 6.32854 5.79781 6.25286 6.14263 6.399C6.42055 6.51679 6.55811 6.72061 6.60536 6.79795C6.70179 6.95574 6.72812 7.10227 6.73098 7.11622C6.7403 7.16155 6.74424 7.19734 6.7458 7.21275C6.75096 7.2635 6.75 7.29993 6.75 7.28099H4.75C4.75 7.2945 4.75012 7.31123 4.75063 7.32926C4.75103 7.34364 4.75209 7.37594 4.75603 7.41478C4.7579 7.43321 4.76219 7.47142 4.77188 7.51861C4.77681 7.54261 4.7855 7.58065 4.80021 7.62618C4.81299 7.66571 4.84182 7.74759 4.89877 7.84079C4.92847 7.8894 4.97506 7.95641 5.04399 8.02556C5.11334 8.09514 5.21774 8.17923 5.36221 8.24046C5.5134 8.30453 5.68433 8.33292 5.85982 8.314C6.02964 8.29568 6.16659 8.23729 6.26528 8.1784C6.36179 8.1208 6.43116 8.05735 6.47632 8.01005C6.52241 7.96177 6.55606 7.91684 6.57893 7.88336C6.62314 7.81864 6.65047 7.76216 6.66445 7.73133C6.69257 7.6693 6.70813 7.61783 6.71398 7.59793C6.7215 7.57238 6.72668 7.55112 6.72975 7.53794C6.73584 7.51175 6.74002 7.48942 6.74225 7.4771C6.74691 7.45138 6.75089 7.42545 6.75357 7.40763C6.76642 7.32212 6.77691 7.2416 6.79373 7.14562C6.80158 7.10081 6.80887 7.06449 6.81522 7.03751C6.82275 7.00546 6.82386 7.00857 6.81452 7.03266C6.80974 7.045 6.79485 7.08219 6.766 7.13101C6.74237 7.17099 6.67513 7.27848 6.54545 7.37978C6.47571 7.43425 6.37617 7.49609 6.24611 7.53747C6.11141 7.58032 5.96186 7.59526 5.80897 7.57246C5.50733 7.52747 5.32309 7.3594 5.24651 7.27555L6.72334 5.92686ZM6.75 7.28099V7.25197H4.75V7.28099H6.75ZM5.75 6.25197H2.65486V8.25197H5.75V6.25197ZM2.65486 6.25197C2.058 6.25197 1.57444 6.53677 1.22162 6.92111L2.69495 8.27363C2.73418 8.2309 2.74938 8.2272 2.7352 8.23423C2.72797 8.23782 2.71591 8.24274 2.69989 8.24654C2.68378 8.25037 2.66821 8.25197 2.65486 8.25197V6.25197ZM1.22162 6.92111C0.862636 7.31217 0.640654 7.80238 0.642865 8.36406L2.64285 8.35618C2.64283 8.35062 2.64331 8.34817 2.64339 8.34771C2.64348 8.34728 2.64373 8.34595 2.64499 8.34291C2.64714 8.33771 2.65782 8.31407 2.69495 8.27363L1.22162 6.92111ZM0.642857 8.36012V27.7329H2.64286V8.36012H0.642857ZM0.642857 27.7329C0.642857 28.2909 0.864638 28.7772 1.21813 29.1663L2.69844 27.8214C2.6601 27.7792 2.64831 27.7539 2.64549 27.7471C2.64348 27.7422 2.64286 27.74 2.64286 27.7329H0.642857ZM1.21813 29.1663C1.57053 29.5542 2.05652 29.8421 2.65795 29.8392L2.64847 27.8392C2.66256 27.8392 2.67909 27.8408 2.69631 27.8449C2.71344 27.8489 2.72658 27.8542 2.73481 27.8583C2.75096 27.8663 2.73696 27.8638 2.69844 27.8214L1.21813 29.1663ZM7.39286 6.45303H15.6071V4.45303H7.39286V6.45303ZM16.6071 5.45303V4.55356H14.6071V5.45303H16.6071ZM14.6071 4.55356C14.6071 4.55182 14.6072 4.54313 14.6081 4.52912C14.6089 4.51583 14.611 4.49063 14.6167 4.45737C14.6215 4.42917 14.6528 4.22297 14.8223 4.02077C14.9229 3.90082 15.0782 3.77599 15.2927 3.71211C15.5043 3.64909 15.695 3.66868 15.8312 3.70624C16.0634 3.77026 16.1988 3.9022 16.2183 3.92053C16.2818 3.98024 16.3045 4.02299 16.2669 3.96772C16.2421 3.93123 16.2085 3.87847 16.1578 3.7977C15.968 3.495 15.6257 2.93398 15.1594 2.42343L13.6826 3.77212C14.0071 4.12746 14.2579 4.53247 14.4634 4.86026C14.5116 4.93711 14.5645 5.021 14.6138 5.09338C14.6503 5.14699 14.7348 5.27083 14.8477 5.37705C14.8919 5.41863 15.0489 5.56518 15.2997 5.63431C15.4452 5.67442 15.6444 5.6942 15.8637 5.62888C16.0859 5.56269 16.2481 5.43308 16.3549 5.30577C16.5368 5.08883 16.5773 4.85754 16.5883 4.79306C16.6048 4.69656 16.6071 4.61023 16.6071 4.55356L14.6071 4.55356ZM15.1594 2.42343C14.1822 1.35336 12.9419 0.798939 11.5 0.798939V2.79894C12.3712 2.79894 13.0783 3.11041 13.6826 3.77212L15.1594 2.42343ZM11.5 0.798939C10.0581 0.798939 8.81781 1.35336 7.84059 2.42343L9.31741 3.77212C9.92171 3.11041 10.6288 2.79894 11.5 2.79894L11.5 0.798939ZM7.84059 2.42343C7.37433 2.93398 7.03202 3.495 6.8422 3.7977C6.79155 3.87847 6.75794 3.93123 6.73309 3.96772C6.69545 4.02299 6.71823 3.98024 6.78169 3.92053C6.80116 3.9022 6.93658 3.77026 7.16877 3.70624C7.305 3.66868 7.49573 3.64909 7.70729 3.71211C7.92178 3.77599 8.07711 3.90082 8.17768 4.02077C8.34721 4.22297 8.3785 4.42917 8.3833 4.45737C8.38897 4.49063 8.39106 4.51583 8.39192 4.52912C8.39283 4.54313 8.39286 4.55182 8.39286 4.55356L6.39286 4.55356C6.39286 4.61023 6.39525 4.69656 6.41168 4.79306C6.42266 4.85754 6.46321 5.08883 6.6451 5.30577C6.75185 5.43308 6.91413 5.56269 7.13634 5.62888C7.35563 5.6942 7.55485 5.67442 7.70034 5.63431C7.95107 5.56518 8.10811 5.41863 8.15229 5.37705C8.26517 5.27083 8.34973 5.14699 8.38623 5.09338C8.43551 5.021 8.48839 4.93711 8.53659 4.86026C8.74215 4.53247 8.99291 4.12746 9.31741 3.77212L7.84059 2.42343ZM6.39286 4.55356V5.45303H8.39286V4.55356H6.39286Z" fill="white" mask="url(#path-1-inside-1_40_99)"/>
<path d="M8.27979 9.2L14.7198 9.2" stroke="white" stroke-width="1.5" stroke-linecap="round"/>
<path d="M5 6.35265L18 6.35264" stroke="white" stroke-width="1.8" stroke-linecap="round"/>
</svg>
