<svg width="40" height="40" viewBox="0 0 40 40" fill="none" xmlns="http://www.w3.org/2000/svg">
<path d="M37.3906 31.9031H2.60938C1.85938 31.9031 1.25 31.2938 1.25 30.5438V9.4625C1.25 8.70938 1.85937 8.09688 2.61562 8.09688H37.3875C38.1406 8.09688 38.7531 8.70625 38.7531 9.4625V30.5438C38.7515 30.9043 38.6073 31.2496 38.352 31.5043C38.0968 31.7589 37.7512 31.9023 37.3906 31.9031Z" fill="#2E7D32"/>
<path d="M37.4312 28.0969H2.56875C2.39557 28.0969 2.22408 28.0628 2.06409 27.9965C1.90409 27.9302 1.75871 27.8331 1.63625 27.7106C1.38894 27.4633 1.25 27.1279 1.25 26.7781V9.4625C1.25 8.70938 1.85937 8.09688 2.61562 8.09688H37.3875C38.1406 8.09688 38.7531 8.70625 38.7531 9.4625V26.7781C38.7518 27.128 38.612 27.4632 38.3643 27.7103C38.1166 27.9574 37.7811 28.0964 37.4312 28.0969Z" fill="#66BB6A"/>
<path d="M12.3999 20.4281C12.3999 20.0438 12.2655 19.7188 11.9968 19.4563C11.728 19.1938 11.2718 18.9531 10.6312 18.7406C9.74055 18.4688 9.09055 18.1156 8.6843 17.6781C8.27492 17.2406 8.0718 16.6844 8.0718 16.0125C8.0718 15.325 8.2718 14.7625 8.6718 14.325C9.0718 13.8844 9.6218 13.625 10.3187 13.5406V12.4563C10.3187 12.2969 10.4499 12.1656 10.6093 12.1656H10.9624C11.1218 12.1656 11.253 12.2969 11.253 12.4563V13.5469C11.9562 13.6438 12.503 13.9375 12.8937 14.4313C13.2437 14.875 13.4374 15.4625 13.4749 16.1969C13.4812 16.3406 13.3624 16.4594 13.2187 16.4594H12.5718C12.4343 16.4594 12.328 16.35 12.3155 16.2125C12.2812 15.7344 12.1437 15.3469 11.903 15.05C11.6218 14.7031 11.2437 14.5281 10.7687 14.5281C10.2718 14.5281 9.89055 14.6563 9.62805 14.9156C9.36555 15.1719 9.23117 15.5344 9.23117 15.9938C9.23117 16.4219 9.3718 16.7625 9.64992 17.0156C9.92805 17.2688 10.3874 17.5 11.0249 17.7063C11.6624 17.9125 12.1593 18.1406 12.5187 18.3906C12.8749 18.6406 13.1405 18.9281 13.3093 19.2594C13.478 19.5906 13.5624 19.9781 13.5624 20.4219C13.5624 21.1281 13.3499 21.6969 12.9249 22.1281C12.4999 22.5594 11.9062 22.8156 11.1405 22.8938V23.8C11.1405 23.9594 11.0093 24.0906 10.8499 24.0906H10.4999C10.3405 24.0906 10.2093 23.9594 10.2093 23.8V22.8938C9.43117 22.8219 8.8218 22.5469 8.38117 22.0625C7.98742 21.6313 7.76867 21.0625 7.72805 20.3594C7.71867 20.2156 7.84055 20.0969 7.9843 20.0969H8.63742C8.76867 20.0969 8.88117 20.1938 8.89055 20.325C8.92492 20.7969 9.07492 21.1688 9.34055 21.4406C9.6468 21.7531 10.078 21.9125 10.6405 21.9125C11.1874 21.9125 11.6187 21.7813 11.9343 21.5156C12.2437 21.2438 12.3999 20.8844 12.3999 20.4281Z" fill="white"/>
<path d="M11.1371 23.1531L10.209 22.8875L10.3152 13.5688V13.2531L11.2496 13.5438L11.1371 22.8813V23.1531Z" fill="white"/>
<path opacity="0.5" d="M26.4941 23.8781C29.687 23.8781 32.2754 21.2898 32.2754 18.0969C32.2754 14.904 29.687 12.3156 26.4941 12.3156C23.3012 12.3156 20.7129 14.904 20.7129 18.0969C20.7129 21.2898 23.3012 23.8781 26.4941 23.8781Z" fill="#2E7D32"/>
<path d="M33.2654 10.3437C33.5342 12.0312 34.8717 13.3687 36.5592 13.6375V22.5563C34.8717 22.825 33.5342 24.1625 33.2654 25.85H6.69355C6.3498 24.2531 5.0498 23.0219 3.4373 22.7656V13.8469C5.19668 13.5688 6.57168 12.1312 6.75918 10.3437H33.2654ZM33.8404 9.71875H6.15293C6.15605 9.7875 6.15918 9.85625 6.15918 9.92813C6.15918 11.775 4.6623 13.2719 2.81543 13.2719V23.3437C4.59043 23.3437 6.04355 24.7281 6.15293 26.4781H33.8436C33.8436 24.6313 35.3404 23.1344 37.1873 23.1344V13.0625C35.3373 13.0625 33.8404 11.5656 33.8404 9.71875Z" fill="#2E7D32"/>
</svg>
