<svg width="25" height="25" viewBox="0 0 25 25" fill="none" xmlns="http://www.w3.org/2000/svg">
<path d="M18.3335 0L13.3335 5L14.5127 6.16833L17.5002 3.18167V16.6667H7.50016V7.5H5.8335V16.6667C5.8335 17.5858 6.581 18.3333 7.50016 18.3333H17.5002C18.4193 18.3333 19.1668 17.5858 19.1668 16.6667V3.17917L22.1552 6.16833L23.3335 5L18.3335 0Z" fill="black"/>
<path d="M14.5833 15H10.4167C9.7275 15 9.16667 14.4392 9.16667 13.75V9.58333C9.16667 8.89417 9.7275 8.33333 10.4167 8.33333H14.5833C15.2725 8.33333 15.8333 8.89417 15.8333 9.58333V13.75C15.8333 14.4392 15.2725 15 14.5833 15ZM10.8333 13.3333H14.1667V10H10.8333V13.3333ZM12.5 25V23.3333C18.4733 23.3333 23.3333 18.4733 23.3333 12.5C23.3333 11.4458 23.1825 10.405 22.885 9.40416L24.4825 8.92917C24.825 10.0833 25 11.285 25 12.5C25 19.3925 19.3925 25 12.5 25ZM0.517505 16.0708C0.173221 14.9118 -0.00109406 13.709 5.16632e-06 12.5C5.16632e-06 5.6075 5.6075 0 12.5 0V1.66667C6.52667 1.66667 1.66667 6.52667 1.66667 12.5C1.66667 13.5542 1.8175 14.5958 2.115 15.5958L0.517505 16.0708Z" fill="black"/>
</svg>
