<svg width="100" height="99" viewBox="0 0 100 99" fill="none" xmlns="http://www.w3.org/2000/svg">
<path d="M50.625 72.6146C51.5347 72.6146 52.2969 72.3073 52.9115 71.6927C53.5226 71.0781 53.8281 70.316 53.8281 69.4063C53.8281 68.5 53.5208 67.7396 52.9062 67.125C52.2917 66.5104 51.5312 66.2014 50.625 66.1979C49.7188 66.1944 48.9583 66.5017 48.3437 67.1198C47.7292 67.7379 47.4219 68.4983 47.4219 69.401C47.4219 70.3038 47.7292 71.066 48.3437 71.6875C48.9583 72.309 49.7188 72.6215 50.625 72.6146ZM48.0208 55.3802H53.2292V24.1302H48.0208V55.3802ZM50.6406 96.25C44.1615 96.25 38.0677 95.0208 32.3594 92.5625C26.6545 90.1007 21.691 86.7604 17.4687 82.5417C13.2465 78.3229 9.90451 73.3646 7.44271 67.6667C4.9809 61.9688 3.75 55.8767 3.75 49.3906C3.75 42.9045 4.9809 36.8108 7.44271 31.1094C9.90104 25.4045 13.2361 20.441 17.4479 16.2187C21.6597 11.9965 26.6198 8.65451 32.3281 6.19271C38.0365 3.7309 44.1302 2.5 50.6094 2.5C57.0885 2.5 63.1823 3.7309 68.8906 6.19271C74.5955 8.65104 79.559 11.9878 83.7812 16.2031C88.0035 20.4184 91.3455 25.3785 93.8073 31.0833C96.2691 36.7882 97.5 42.8802 97.5 49.3594C97.5 55.8385 96.2708 61.9323 93.8125 67.6406C91.3542 73.349 88.0139 78.3125 83.7917 82.5313C79.5694 86.75 74.6111 90.092 68.9167 92.5573C63.2222 95.0226 57.1302 96.2535 50.6406 96.25ZM50.625 91.0417C62.2569 91.0417 72.1094 87.0052 80.1823 78.9323C88.2552 70.8594 92.2917 61.0069 92.2917 49.375C92.2917 37.7431 88.2552 27.8906 80.1823 19.8177C72.1094 11.7448 62.2569 7.70833 50.625 7.70833C38.9931 7.70833 29.1406 11.7448 21.0677 19.8177C12.9948 27.8906 8.95833 37.7431 8.95833 49.375C8.95833 61.0069 12.9948 70.8594 21.0677 78.9323C29.1406 87.0052 38.9931 91.0417 50.625 91.0417Z" fill="#F11E1E"/>
</svg>
