<svg width="28" height="26" viewBox="0 0 28 26" fill="none" xmlns="http://www.w3.org/2000/svg">
<path d="M14 26C13.7963 26.0013 13.5943 25.9608 13.4059 25.8809C13.2175 25.8009 13.0464 25.6832 12.9026 25.5345L2.44597 14.7453C1.50617 13.7739 0.804363 12.5857 0.398694 11.2789C-0.00697593 9.9722 -0.104838 8.58462 0.113214 7.23114C0.331267 5.87765 0.858957 4.5972 1.65258 3.49586C2.44619 2.39452 3.4829 1.50398 4.67682 0.898009C6.1828 0.12231 7.88268 -0.160549 9.54889 0.0873005C11.2151 0.33515 12.7681 1.10188 14 2.28484C15.2319 1.10188 16.7849 0.33515 18.4511 0.0873005C20.1173 -0.160549 21.8172 0.12231 23.3232 0.898009C24.5171 1.50398 25.5538 2.39452 26.3474 3.49586C27.141 4.5972 27.6687 5.87765 27.8868 7.23114C28.1048 8.58462 28.007 9.9722 27.6013 11.2789C27.1956 12.5857 26.4938 13.7739 25.554 14.7453L15.088 25.5345C14.9453 25.682 14.7757 25.7991 14.589 25.879C14.4023 25.9589 14.2021 26 14 26ZM8.28569 1.62537C7.28111 1.61867 6.28966 1.86092 5.39483 2.33171C4.41088 2.83491 3.5577 3.57308 2.90627 4.48482C2.25484 5.39656 1.82399 6.4555 1.64957 7.57355C1.48689 8.66207 1.57451 9.77478 1.90536 10.822C2.23621 11.8692 2.80104 12.8216 3.55434 13.6025L14.0188 24.3917L24.4457 13.6025C25.199 12.8216 25.7638 11.8692 26.0946 10.822C26.4255 9.77478 26.5131 8.66207 26.3504 7.57355C26.176 6.4555 25.7452 5.39656 25.0937 4.48482C24.4423 3.57308 23.5891 2.83491 22.6052 2.33171C21.3295 1.69677 19.8934 1.48818 18.4972 1.73505C17.101 1.98192 15.8144 2.67194 14.8168 3.70885C14.5987 3.92938 14.3055 4.05293 14 4.05293C13.6945 4.05293 13.4013 3.92938 13.1832 3.70885C11.8781 2.38033 10.1197 1.63232 8.28569 1.62537Z" fill="black"/>
</svg>
