<svg width="104" height="33" viewBox="0 0 104 33" fill="none" xmlns="http://www.w3.org/2000/svg">
<path d="M22.4 9.4L23.52 14.66C23.68 15.38 23.8133 16.08 23.92 16.76C24.04 17.4267 24.14 18.1267 24.22 18.86H24.26C24.3667 18.1267 24.4867 17.4133 24.62 16.72C24.7533 16.0267 24.8933 15.34 25.04 14.66L26.24 9.4H29.5L30.72 14.66C30.88 15.34 31.02 16.0267 31.14 16.72C31.26 17.4 31.3733 18.1133 31.48 18.86H31.52C31.6133 18.1133 31.7267 17.3933 31.86 16.7C31.9933 15.9933 32.1267 15.3133 32.26 14.66L33.34 9.4H36.4L33.34 22H29.98L28.72 16.64C28.56 15.96 28.4067 15.2733 28.26 14.58C28.1133 13.8733 27.9733 13.16 27.84 12.44H27.8C27.68 13.16 27.5467 13.8667 27.4 14.56C27.2533 15.2533 27.1067 15.94 26.96 16.62L25.74 22H22.42L19.3 9.4H22.4ZM37.7033 13.24C38.2499 12.92 38.8633 12.6667 39.5433 12.48C40.2366 12.28 40.9433 12.18 41.6633 12.18C42.8499 12.18 43.8033 12.4667 44.5233 13.04C45.2433 13.6133 45.6033 14.5267 45.6033 15.78V22H43.3433L43.0833 21.04H43.0033C42.7366 21.3867 42.3633 21.6733 41.8833 21.9C41.4166 22.1133 40.8633 22.22 40.2233 22.22C39.6766 22.22 39.1966 22.14 38.7833 21.98C38.3833 21.82 38.0499 21.6067 37.7833 21.34C37.5166 21.0733 37.3099 20.76 37.1633 20.4C37.0299 20.0267 36.9633 19.6333 36.9633 19.22C36.9633 18.66 37.0833 18.18 37.3233 17.78C37.5766 17.38 37.9099 17.0533 38.3233 16.8C38.7499 16.5467 39.2433 16.36 39.8033 16.24C40.3766 16.12 40.9833 16.06 41.6233 16.06H42.6233V15.54C42.6233 15.18 42.4966 14.9067 42.2433 14.72C41.9899 14.52 41.6299 14.42 41.1633 14.42C40.7633 14.42 40.3699 14.48 39.9833 14.6C39.5966 14.72 39.1699 14.9133 38.7033 15.18L37.7033 13.24ZM42.6433 17.86L41.9833 17.88C41.6099 17.8933 41.2966 17.9333 41.0433 18C40.7899 18.0667 40.5833 18.1533 40.4233 18.26C40.2766 18.3533 40.1699 18.4733 40.1033 18.62C40.0366 18.7533 40.0033 18.8933 40.0033 19.04C40.0033 19.4533 40.1233 19.74 40.3633 19.9C40.6166 20.0467 40.9033 20.12 41.2233 20.12C41.5433 20.12 41.8299 20.0267 42.0833 19.84C42.3499 19.6533 42.5366 19.4467 42.6433 19.22V17.86ZM48.013 22V7.7H50.933V22H48.013ZM56.3041 18.88V22H53.3641V7.7H56.3041V16.04L59.3041 12.4H62.8841L59.2641 16.44L63.0441 22H59.5641L57.0241 18.14L56.3041 18.88ZM65.4411 9.4L67.3411 16.32C67.3811 16.4933 67.4344 16.72 67.5011 17C67.5678 17.2667 67.6278 17.5533 67.6811 17.86C67.7478 18.1533 67.8078 18.4533 67.8611 18.76C67.9144 19.0533 67.9611 19.32 68.0011 19.56H68.0411C68.0811 19.32 68.1278 19.0533 68.1811 18.76C68.2344 18.4533 68.2944 18.1533 68.3611 17.86C68.4278 17.5533 68.4944 17.2667 68.5611 17C68.6278 16.7333 68.6878 16.5067 68.7411 16.32L70.7211 9.4H72.7611L74.7611 16.28C74.8144 16.44 74.8744 16.66 74.9411 16.94C75.0078 17.22 75.0744 17.5133 75.1411 17.82C75.2078 18.1267 75.2678 18.44 75.3211 18.76C75.3878 19.0667 75.4411 19.3333 75.4811 19.56H75.5211C75.5611 19.32 75.6078 19.0533 75.6611 18.76C75.7278 18.4667 75.7878 18.1733 75.8411 17.88C75.9078 17.5733 75.9744 17.28 76.0411 17C76.1078 16.72 76.1678 16.48 76.2211 16.28L78.0211 9.4H80.1811L76.6411 22H74.4011L72.5411 15.26C72.3944 14.7 72.2544 14.1667 72.1211 13.66C72.0011 13.1533 71.8678 12.6 71.7211 12H71.6811C71.5344 12.6 71.4011 13.1467 71.2811 13.64C71.1611 14.1333 71.0278 14.66 70.8811 15.22L69.0811 22H66.8811L63.2611 9.4H65.4411ZM81.8481 22V12.56H83.9081V22H81.8481ZM82.8881 10.22C82.5281 10.22 82.2415 10.1133 82.0281 9.9C81.8148 9.67333 81.7081 9.39333 81.7081 9.06C81.7081 8.72667 81.8148 8.45333 82.0281 8.24C82.2415 8.01333 82.5281 7.9 82.8881 7.9C83.2348 7.9 83.5148 8.01333 83.7281 8.24C83.9548 8.45333 84.0681 8.72667 84.0681 9.06C84.0681 9.40667 83.9548 9.68667 83.7281 9.9C83.5148 10.1133 83.2348 10.22 82.8881 10.22ZM92.1853 14.48C91.7586 14.28 91.3586 14.14 90.9853 14.06C90.6253 13.9667 90.2653 13.92 89.9053 13.92C89.3453 13.92 88.9186 14.0267 88.6253 14.24C88.3453 14.44 88.2053 14.7133 88.2053 15.06C88.2053 15.3267 88.312 15.56 88.5253 15.76C88.7386 15.9467 89.1786 16.1333 89.8453 16.32L90.4453 16.5C91.312 16.7667 91.9653 17.1133 92.4053 17.54C92.8586 17.9667 93.0853 18.54 93.0853 19.26C93.0853 20.14 92.752 20.8533 92.0853 21.4C91.4186 21.9333 90.5053 22.2 89.3453 22.2C88.7186 22.2 88.132 22.14 87.5853 22.02C87.052 21.9133 86.572 21.76 86.1453 21.56L86.6253 20C87.012 20.1867 87.4253 20.34 87.8653 20.46C88.3053 20.58 88.7586 20.64 89.2253 20.64C89.7986 20.64 90.2453 20.54 90.5653 20.34C90.8853 20.14 91.0453 19.8333 91.0453 19.42C91.0453 19.0333 90.8986 18.76 90.6053 18.6C90.3253 18.4267 89.8853 18.2467 89.2853 18.06L88.6653 17.88C87.8253 17.6 87.1986 17.2467 86.7853 16.82C86.3853 16.3933 86.1853 15.8333 86.1853 15.14C86.1853 14.7267 86.272 14.3533 86.4453 14.02C86.6186 13.6867 86.8586 13.4 87.1653 13.16C87.472 12.92 87.8386 12.7333 88.2653 12.6C88.7053 12.4667 89.1853 12.4 89.7053 12.4C90.1986 12.4 90.6986 12.4467 91.2053 12.54C91.7253 12.6333 92.2053 12.78 92.6453 12.98L92.1853 14.48ZM103.148 17.64H96.528V17.72C96.528 18.68 96.808 19.4067 97.368 19.9C97.928 20.3933 98.668 20.64 99.588 20.64C100.095 20.64 100.548 20.6 100.948 20.52C101.361 20.4267 101.775 20.2867 102.188 20.1L102.588 21.6C102.201 21.7733 101.741 21.9133 101.208 22.02C100.675 22.14 100.088 22.2 99.448 22.2C98.768 22.2 98.1213 22.1067 97.508 21.92C96.8946 21.7333 96.3546 21.44 95.888 21.04C95.4346 20.64 95.0746 20.1333 94.808 19.52C94.5413 18.9067 94.408 18.1733 94.408 17.32C94.408 16.5867 94.5146 15.92 94.728 15.32C94.9546 14.7067 95.268 14.1867 95.668 13.76C96.0813 13.32 96.5746 12.9867 97.148 12.76C97.7346 12.52 98.3813 12.4 99.088 12.4C99.7013 12.4 100.255 12.5 100.748 12.7C101.255 12.9 101.681 13.1867 102.028 13.56C102.388 13.92 102.661 14.3667 102.848 14.9C103.048 15.42 103.148 16 103.148 16.64V17.64ZM101.028 16.2C101.028 15.88 100.988 15.58 100.908 15.3C100.828 15.02 100.708 14.78 100.548 14.58C100.388 14.3667 100.175 14.2 99.908 14.08C99.6546 13.9467 99.348 13.88 98.988 13.88C98.3213 13.88 97.7746 14.0933 97.348 14.52C96.9346 14.9467 96.6813 15.52 96.588 16.24L101.028 16.2Z" fill="black"/>
<path fill-rule="evenodd" clip-rule="evenodd" d="M13.6756 6.78393C13.5171 6.56573 13.2345 6.39089 12.9978 6.41568C12.5739 6.46009 12.0734 6.94106 11.771 7.23255C11.3175 7.66842 10.78 8.09346 10.1751 8.28539C9.72739 8.42604 9.17432 8.41345 8.67891 8.33768C8.59731 8.32569 7.88871 8.15798 7.88871 8.15798C6.89623 7.82001 6.60604 9.10658 6.2966 9.75771C6.08426 10.2022 5.8141 10.7341 5.50025 11.275C5.35249 11.2768 5.20752 11.3154 5.07848 11.3874C4.94943 11.4594 4.8404 11.5625 4.76127 11.6873C4.68213 11.8121 4.63539 11.9547 4.62528 12.1021C4.61518 12.2495 4.64202 12.3972 4.70339 12.5316C4.46624 12.8927 4.24157 13.2394 4.02938 13.5718C3.85493 13.5417 3.67546 13.5644 3.51404 13.6371C3.35261 13.7098 3.21659 13.829 3.12344 13.9796C3.0303 14.1301 2.98427 14.3051 2.99128 14.4819C2.99829 14.6588 3.05801 14.8296 3.16277 14.9723C2.34866 16.337 1.80471 17.434 1.52444 18.3892C1.28794 19.1997 1.22808 19.9407 1.36487 20.6754C1.50055 21.3996 1.81473 22.055 2.2267 22.7064C2.78529 23.5898 3.9424 23.7266 4.71982 23.1622L16.9345 14.2938C17.3156 14.0171 17.5712 13.6003 17.645 13.1351C17.7189 12.67 17.6049 12.1945 17.3282 11.8134L13.6756 6.78393ZM14.3253 10.7013L12.8448 8.6628C12.2207 9.21566 11.5124 9.72465 10.7105 9.97829C9.88604 10.2388 9.01895 10.1859 8.41294 10.094C8.04008 10.0375 8.06144 10.1817 7.89967 10.521C7.71534 10.909 7.48477 11.367 7.21729 11.8477L7.3204 11.886C7.43044 11.926 7.53149 11.9873 7.61774 12.0665C7.70399 12.1456 7.77373 12.2411 7.82295 12.3473C7.87217 12.4535 7.8999 12.5684 7.90455 12.6854C7.90919 12.8024 7.89066 12.9191 7.85001 13.0289C7.80937 13.1387 7.74741 13.2394 7.66771 13.3251C7.58801 13.4109 7.49214 13.48 7.38562 13.5286C7.27909 13.5771 7.16402 13.6041 7.04701 13.6081C6.93001 13.612 6.81338 13.5927 6.70385 13.5514L6.26449 13.3885C6.0812 13.6672 5.90694 13.9355 5.74169 14.1932C5.94833 14.2897 6.10993 14.462 6.193 14.6744C6.27606 14.8868 6.27422 15.123 6.18786 15.334C6.1015 15.5451 5.93724 15.7149 5.72912 15.8081C5.52101 15.9014 5.28499 15.911 5.06998 15.8349L4.78021 15.7278C3.9541 17.0973 3.46309 18.0862 3.22752 18.8885C3.05336 19.4843 3.03403 19.939 3.11009 20.3498C3.18588 20.7579 3.36883 21.1833 3.69716 21.7096L15.8903 12.8569L15.3686 12.1383L11.7761 14.7467C11.5854 14.8832 11.3485 14.9387 11.1171 14.9012C10.8856 14.8637 10.6784 14.7361 10.5406 14.5464C10.4029 14.3567 10.3458 14.1201 10.3817 13.8884C10.4177 13.6567 10.5439 13.4487 10.7327 13.3097L14.3253 10.7013Z" fill="black"/>
</svg>
