<svg width="35" height="28" viewBox="0 0 35 28" fill="none" xmlns="http://www.w3.org/2000/svg">
<g clip-path="url(#clip0_40_82)">
<path d="M6.36311 27.0718V25.2711C6.36311 24.5807 5.94283 24.1306 5.22246 24.1306C4.86234 24.1306 4.47215 24.2506 4.20199 24.6408C3.99199 24.3106 3.69189 24.1306 3.24168 24.1306C2.94145 24.1306 2.64148 24.2205 2.40127 24.5507V24.1906H1.771V27.0718H2.40127V25.4811C2.40127 24.971 2.67143 24.7308 3.0917 24.7308C3.5117 24.7308 3.72197 25.0009 3.72197 25.4811V27.0718H4.35225V25.4811C4.35225 24.971 4.65221 24.7308 5.0424 24.7308C5.46268 24.7308 5.67268 25.0009 5.67268 25.4811V27.0718H6.36311ZM15.697 24.1906H14.6767V23.3203H14.0464V24.1906H13.4762V24.7607H14.0463V26.0814C14.0463 26.7418 14.3164 27.1318 15.0368 27.1318C15.307 27.1318 15.6069 27.0419 15.8172 26.9218L15.637 26.3815C15.457 26.5016 15.247 26.5316 15.0968 26.5316C14.7967 26.5316 14.6767 26.3516 14.6767 26.0513V24.7607H15.697V24.1906ZM21.0395 24.1304C20.6793 24.1304 20.4393 24.3106 20.2891 24.5507V24.1906H19.6589V27.0718H20.2891V25.4512C20.2891 24.971 20.4991 24.7008 20.8893 24.7008C21.0094 24.7008 21.1595 24.7309 21.2795 24.7609L21.4596 24.1607C21.3396 24.1306 21.1595 24.1306 21.0395 24.1306M12.9659 24.4308C12.6657 24.2207 12.2456 24.1307 11.7954 24.1307C11.0751 24.1307 10.595 24.4908 10.595 25.0611C10.595 25.5414 10.9551 25.8114 11.5854 25.9015L11.8854 25.9316C12.2156 25.9915 12.3957 26.0816 12.3957 26.2317C12.3957 26.4417 12.1556 26.5918 11.7353 26.5918C11.3151 26.5918 10.985 26.4417 10.7749 26.2917L10.4748 26.7719C10.805 27.0119 11.2552 27.132 11.7053 27.132C12.5457 27.132 13.026 26.7419 13.026 26.2016C13.026 25.6914 12.6358 25.4212 12.0354 25.3312L11.7353 25.3012C11.4652 25.2711 11.2552 25.2112 11.2552 25.0312C11.2552 24.821 11.4652 24.701 11.7954 24.701C12.1556 24.701 12.5157 24.851 12.6958 24.9411L12.9659 24.4308ZM29.7133 24.1307C29.353 24.1307 29.113 24.3108 28.9629 24.5509V24.1907H28.3326V27.072H28.9629V25.4513C28.9629 24.9711 29.173 24.701 29.563 24.701C29.6832 24.701 29.8333 24.7311 29.9534 24.761L30.1334 24.1608C30.0134 24.1307 29.8333 24.1307 29.7133 24.1307ZM21.6697 25.6313C21.6697 26.5017 22.2699 27.132 23.2004 27.132C23.6206 27.132 23.9207 27.042 24.2208 26.8019L23.9207 26.2917C23.6806 26.4718 23.4405 26.5617 23.1704 26.5617C22.6601 26.5617 22.3 26.2016 22.3 25.6313C22.3 25.0912 22.6601 24.7309 23.1704 24.701C23.4405 24.701 23.6806 24.7909 23.9207 24.9711L24.2208 24.4609C23.9207 24.2207 23.6206 24.1307 23.2004 24.1307C22.2699 24.1307 21.6697 24.761 21.6697 25.6313ZM27.4923 25.6313V24.1907H26.862V24.5509C26.6519 24.2808 26.3518 24.1307 25.9616 24.1307C25.1513 24.1307 24.521 24.761 24.521 25.6313C24.521 26.5017 25.1513 27.132 25.9616 27.132C26.3817 27.132 26.682 26.982 26.862 26.7118V27.072H27.4923V25.6313ZM25.1812 25.6313C25.1812 25.1211 25.5114 24.701 26.0516 24.701C26.5618 24.701 26.9221 25.0912 26.9221 25.6313C26.9221 26.1416 26.5618 26.5617 26.0516 26.5617C25.5114 26.5316 25.1812 26.1416 25.1812 25.6313ZM17.648 24.1307C16.8076 24.1307 16.2073 24.7309 16.2073 25.6313C16.2073 26.5318 16.8075 27.132 17.678 27.132C18.0981 27.132 18.5184 27.0119 18.8485 26.7419L18.5483 26.2917C18.3082 26.4718 18.0081 26.5918 17.708 26.5918C17.3178 26.5918 16.9276 26.4117 16.8375 25.9014H18.9686V25.6614C18.9987 24.7309 18.4585 24.1307 17.648 24.1307ZM17.6479 24.6709C18.0379 24.6709 18.3082 24.9111 18.3681 25.3613H16.8675C16.9275 24.9711 17.1977 24.6709 17.6479 24.6709ZM33.2847 25.6313V23.0502H32.6544V24.5509C32.4443 24.2808 32.1442 24.1307 31.754 24.1307C30.9436 24.1307 30.3134 24.761 30.3134 25.6313C30.3134 26.5017 30.9436 27.132 31.754 27.132C32.1742 27.132 32.4743 26.982 32.6544 26.7118V27.072H33.2847V25.6313ZM30.9737 25.6313C30.9737 25.1211 31.3037 24.701 31.8441 24.701C32.3543 24.701 32.7144 25.0912 32.7144 25.6313C32.7144 26.1416 32.3543 26.5617 31.8441 26.5617C31.3037 26.5316 30.9737 26.1416 30.9737 25.6313ZM9.90439 25.6313V24.1907H9.27412V24.5509C9.06398 24.2808 8.76389 24.1307 8.37369 24.1307C7.56336 24.1307 6.93309 24.761 6.93309 25.6313C6.93309 26.5017 7.56336 27.132 8.37369 27.132C8.79396 27.132 9.09406 26.982 9.27412 26.7118V27.072H9.90439V25.6313ZM7.56336 25.6313C7.56336 25.1211 7.89354 24.701 8.43371 24.701C8.94395 24.701 9.3042 25.0912 9.3042 25.6313C9.3042 26.1416 8.94395 26.5617 8.43371 26.5617C7.89354 26.5316 7.56336 26.1416 7.56336 25.6313Z" fill="black"/>
<path d="M12.7554 2.31096H22.2095V19.2984H12.7554V2.31096Z" fill="#FF5F00"/>
<path d="M13.3559 10.8047C13.3559 7.35328 14.9766 4.29188 17.4676 2.31096C15.6369 0.870352 13.326 0 10.8049 0C4.83205 0 0 4.83205 0 10.8047C0 16.7774 4.83205 21.6095 10.8047 21.6095C13.3258 21.6095 15.6368 20.7391 17.4676 19.2984C14.9766 17.3476 13.3559 14.2562 13.3559 10.8047Z" fill="#EB001B"/>
<path d="M34.9652 10.8047C34.9652 16.7773 30.1331 21.6095 24.1604 21.6095C21.6393 21.6095 19.3284 20.7391 17.4976 19.2984C20.0187 17.3176 21.6094 14.2562 21.6094 10.8047C21.6094 7.35328 19.9886 4.29188 17.4976 2.31096C19.3282 0.870352 21.6393 0 24.1604 0C30.1331 0 34.9652 4.86213 34.9652 10.8047Z" fill="#F79E1B"/>
</g>
<defs>
<clipPath id="clip0_40_82">
<rect width="35" height="27.207" fill="white"/>
</clipPath>
</defs>
</svg>
