<svg width="20" height="24" viewBox="0 0 20 24" fill="none" xmlns="http://www.w3.org/2000/svg">
<g clip-path="url(#clip0_40_81)">
<path d="M16.9664 1.85945C15.8779 0.603152 13.91 0.0645447 11.3926 0.0645447H4.08637C3.83728 0.0645058 3.59636 0.154461 3.40693 0.31823C3.2175 0.481998 3.092 0.708831 3.05301 0.957926L0.0108242 20.4936C-0.0496445 20.8788 0.244965 21.2276 0.63059 21.2276H5.14121L6.27403 13.9525L6.23887 14.1803C6.31957 13.6661 6.75395 13.2868 7.26832 13.2868H9.41176C13.6225 13.2868 16.9197 11.5551 17.8828 6.54563C17.9114 6.39747 17.9361 6.25327 17.9575 6.11239C17.836 6.04721 17.836 6.04721 17.9575 6.11239C18.2443 4.26084 17.9556 3.0005 16.9664 1.85945Z" fill="#27346A"/>
<path d="M7.99997 5.4454C8.12325 5.38585 8.25814 5.35504 8.39473 5.35522H14.1227C14.801 5.35522 15.4336 5.39992 16.0118 5.49413C16.1735 5.52026 16.3345 5.55144 16.4943 5.58762C16.7209 5.63826 16.9449 5.70022 17.1654 5.77328C17.4497 5.86939 17.7143 5.98132 17.9576 6.11239C18.2443 4.26013 17.9556 3.00051 16.9664 1.85945C15.8772 0.603152 13.91 0.0645447 11.3926 0.0645447H4.08575C3.57129 0.0645447 3.13364 0.443761 3.05301 0.957926L0.0108246 20.4929C-0.0496441 20.8787 0.244965 21.2271 0.629965 21.2271H5.14122L7.49145 6.13675C7.51458 5.98843 7.57294 5.84802 7.66152 5.72759C7.7501 5.60717 7.86624 5.51032 7.99997 5.4454Z" fill="#27346A"/>
<path d="M17.8827 6.54563C16.9196 11.5544 13.6226 13.2868 9.41172 13.2868H7.26765C6.75328 13.2868 6.31883 13.6661 6.2389 14.1803L4.82961 23.2261C4.77695 23.5632 5.03445 23.8687 5.37133 23.8687H9.17367C9.39148 23.8687 9.60212 23.7899 9.76772 23.6467C9.93331 23.5034 10.043 23.305 10.077 23.0872L10.1141 22.891L10.8307 18.2923L10.8769 18.0382C10.9109 17.8204 11.0206 17.622 11.1862 17.4787C11.3517 17.3355 11.5624 17.2567 11.7802 17.2566H12.3492C16.0326 17.2566 18.9167 15.7415 19.7595 11.3596C20.1113 9.52834 19.9293 7.99945 18.9987 6.92556C18.7164 6.60029 18.3659 6.33166 17.9575 6.11239C17.9354 6.25398 17.9114 6.39747 17.8827 6.54563Z" fill="#2790C3"/>
<path d="M16.9493 5.70549C16.7992 5.6611 16.6476 5.62179 16.4948 5.58763C16.3349 5.55203 16.1739 5.52106 16.0122 5.49477C15.4335 5.39992 14.8013 5.35515 14.1224 5.35515H8.39512C8.25844 5.35492 8.12349 5.38599 8.00035 5.44604C7.86646 5.51073 7.75016 5.60751 7.66154 5.72797C7.57291 5.84844 7.51464 5.98897 7.49176 6.13739L6.27441 13.9525L6.23926 14.1804C6.31934 13.6661 6.75371 13.2868 7.26816 13.2868H9.41223C13.623 13.2868 16.92 11.5551 17.8832 6.54564C17.9118 6.39748 17.9359 6.25391 17.958 6.1124C17.7142 5.98214 17.4501 5.86931 17.1658 5.77392C17.0941 5.74983 17.0219 5.72702 16.9494 5.70549" fill="#1F264F"/>
</g>
<defs>
<clipPath id="clip0_40_81">
<rect width="20" height="23.8889" fill="white"/>
</clipPath>
</defs>
</svg>
