<svg width="25" height="30" viewBox="0 0 25 30" fill="none" xmlns="http://www.w3.org/2000/svg">
<path d="M12.5 29.2253C10.7667 29.2253 9.14271 28.8992 7.62812 28.2472C6.11354 27.5951 4.78958 26.7024 3.65625 25.569C2.52292 24.4357 1.63021 23.1117 0.978125 21.5972C0.326042 20.0826 0 18.4586 0 16.7253C0 14.9919 0.326042 13.368 0.978125 11.8534C1.63021 10.3388 2.52292 9.01487 3.65625 7.88153C4.78958 6.7482 6.11354 5.85549 7.62812 5.20341C9.14271 4.55133 10.7667 4.22528 12.5 4.22528H13.0938L11.0469 2.17685C10.874 2.00393 10.7891 1.81903 10.7922 1.62216C10.7953 1.42528 10.8797 1.24143 11.0453 1.0706C11.2172 0.89768 11.4078 0.814867 11.6172 0.822159C11.8276 0.829451 12.0089 0.909138 12.1609 1.06122L15.2234 4.09247C15.4755 4.3456 15.6016 4.64039 15.6016 4.97685C15.6016 5.3133 15.475 5.60758 15.2219 5.85966L12.2219 8.89091C12.049 9.06383 11.863 9.14872 11.6641 9.1456C11.4641 9.14247 11.2781 9.05497 11.1062 8.8831C10.9396 8.71018 10.8599 8.5206 10.8672 8.31435C10.8745 8.1081 10.9542 7.92893 11.1062 7.77685L13.0938 5.78778H12.5C9.45312 5.78778 6.86875 6.84924 4.74688 8.97216C2.625 11.0951 1.56354 13.6794 1.5625 16.7253C1.56146 19.7711 2.62292 22.356 4.74688 24.48C6.87083 26.6039 9.45521 27.6649 12.5 27.6628C15.5448 27.6607 18.1297 26.5998 20.2547 24.48C22.3797 22.3602 23.4406 19.7753 23.4375 16.7253C23.4375 16.5034 23.512 16.3175 23.6609 16.1675C23.8099 16.0175 23.9958 15.943 24.2188 15.944C24.4417 15.9451 24.6276 16.0196 24.7766 16.1675C24.9255 16.3154 25 16.5013 25 16.7253C25 18.4586 24.674 20.0826 24.0219 21.5972C23.3698 23.1117 22.4771 24.4362 21.3437 25.5706C20.2104 26.705 18.8865 27.5972 17.3719 28.2472C15.8573 28.8972 14.2333 29.2232 12.5 29.2253ZM10.3375 20.9315H6.21875C6.02083 20.9315 5.85625 20.8659 5.725 20.7347C5.59375 20.6044 5.52813 20.4399 5.52813 20.2409C5.52813 20.0419 5.59375 19.8774 5.725 19.7472C5.85625 19.6169 6.02083 19.5513 6.21875 19.5503H10.0344V17.3268H7.39219C7.22344 17.3268 7.08125 17.2685 6.96563 17.1518C6.85 17.0352 6.79167 16.893 6.79062 16.7253C6.78958 16.5576 6.84792 16.4154 6.96563 16.2987C7.08333 16.1821 7.22552 16.1242 7.39219 16.1253H10.0359V13.9003H6.22031C6.0224 13.9003 5.85781 13.8347 5.72656 13.7034C5.59531 13.5732 5.52969 13.4086 5.52969 13.2097C5.52969 13.0107 5.59531 12.8461 5.72656 12.7159C5.85781 12.5857 6.0224 12.5201 6.22031 12.519H10.3375C10.6594 12.519 10.9198 12.6185 11.1188 12.8175C11.3188 13.0175 11.4187 13.2784 11.4187 13.6003V19.8503C11.4187 20.1732 11.3188 20.4341 11.1188 20.6331C10.9198 20.8321 10.6594 20.9315 10.3375 20.9315ZM15.1438 20.9315C14.701 20.9315 14.3302 20.7821 14.0312 20.4831C13.7323 20.1841 13.5823 19.8128 13.5813 19.369V14.0815C13.5813 13.6388 13.7312 13.2675 14.0312 12.9675C14.3312 12.6675 14.7021 12.518 15.1438 12.519H17.9094C18.3521 12.519 18.7229 12.6685 19.0219 12.9675C19.3208 13.2664 19.4708 13.6378 19.4719 14.0815V19.369C19.4719 19.8117 19.3219 20.1831 19.0219 20.4831C18.7219 20.7831 18.351 20.9326 17.9094 20.9315H15.1438ZM15.325 19.5503H17.7281C17.849 19.5503 17.9391 19.5201 17.9984 19.4597C18.0578 19.3992 18.088 19.3091 18.0891 19.1893V14.2612C18.0891 14.1414 18.0589 14.0513 17.9984 13.9909C17.938 13.9305 17.8479 13.9003 17.7281 13.9003H15.325C15.2042 13.9003 15.1135 13.9305 15.0531 13.9909C14.9927 14.0513 14.963 14.1414 14.9641 14.2612V19.1893C14.9641 19.3091 14.9937 19.3992 15.0531 19.4597C15.1135 19.5201 15.2042 19.5503 15.325 19.5503Z" fill="black"/>
</svg>
