<svg width="26" height="27" viewBox="0 0 26 27" fill="none" xmlns="http://www.w3.org/2000/svg">
<path d="M10.4527 6.564e-08C12.4396 -0.000226781 14.3854 0.587521 16.0621 1.69439C17.7389 2.80126 19.0772 4.38141 19.9202 6.24973C20.7633 8.11805 21.0762 10.1972 20.8223 12.2435C20.5683 14.2899 19.7581 16.2187 18.4865 17.8041L25.6967 25.2915C25.8218 25.4122 25.9133 25.5656 25.9614 25.7357C26.0096 25.9057 26.0127 26.0862 25.9704 26.2579C25.9281 26.4297 25.842 26.5864 25.7211 26.7116C25.6003 26.8368 25.4491 26.9258 25.2836 26.9693C25.1184 27.0131 24.9449 27.01 24.7812 26.9602C24.6176 26.9104 24.4698 26.8158 24.3535 26.6864L17.1434 19.1989C15.8532 20.3145 14.3232 21.091 12.683 21.4627C11.0427 21.8344 9.34034 21.7904 7.71991 21.3344C6.09948 20.8784 4.60863 20.0239 3.37349 18.843C2.13834 17.6622 1.19522 16.1898 0.623911 14.5504C0.0526025 12.911 -0.130092 11.1529 0.0912822 9.42466C0.312656 7.69645 0.931587 6.04902 1.89572 4.62174C2.85985 3.19445 4.14082 2.02929 5.63028 1.22482C7.11973 0.42035 8.77386 0.000230244 10.4527 6.564e-08ZM1.89937 10.8561C1.89937 12.0226 2.12061 13.1776 2.55045 14.2553C2.9803 15.3329 3.61034 16.3121 4.40459 17.1369C5.19884 17.9617 6.14176 18.6159 7.1795 19.0623C8.21724 19.5087 9.32948 19.7384 10.4527 19.7384C11.576 19.7384 12.6882 19.5087 13.726 19.0623C14.7637 18.6159 15.7066 17.9617 16.5009 17.1369C17.2951 16.3121 17.9252 15.3329 18.355 14.2553C18.7848 13.1776 19.0061 12.0226 19.0061 10.8561C19.0061 8.50041 18.1049 6.24116 16.5009 4.57541C14.8968 2.90966 12.7212 1.97384 10.4527 1.97384C8.18423 1.97384 6.00865 2.90966 4.40459 4.57541C2.80052 6.24116 1.89937 8.50041 1.89937 10.8561Z" fill="white"/>
</svg>
