<svg width="28" height="28" viewBox="0 0 28 28" fill="none" xmlns="http://www.w3.org/2000/svg">
<path d="M13.1765 0C14.9527 3.31924e-05 16.7106 0.359173 18.3445 1.05583C19.9784 1.75249 21.4546 2.77229 22.6843 4.05393C23.914 5.33558 24.8719 6.85261 25.5003 8.51385C26.1288 10.1751 26.4149 11.9462 26.3414 13.7208C25.911 13.0776 25.3356 12.5445 24.6614 12.1645C24.4584 9.86611 23.5704 7.68153 22.1123 5.89331C20.6542 4.10509 18.693 2.7955 16.4825 2.13394C14.2719 1.47239 11.9137 1.4893 9.71286 2.18249C7.51202 2.87568 5.56983 4.21326 4.1375 6.02221C2.70517 7.83116 1.84861 10.0283 1.67862 12.3293C1.50862 14.6303 2.03302 16.9294 3.18397 18.9292C4.33492 20.9289 6.05947 22.5374 8.13455 23.5464C10.2096 24.5555 12.5398 24.9187 14.8235 24.5891V26.2526C14.2833 26.3185 13.7343 26.3519 13.1765 26.353C9.68185 26.353 6.33037 24.9649 3.8593 22.494C1.38823 20.023 0 16.6718 0 13.1773C0 9.68293 1.38823 6.33164 3.8593 3.86072C6.33037 1.3898 9.68185 0 13.1765 0ZM24.6565 14.2396C25.2 14.826 25.5294 15.6099 25.5294 16.4713V18.1182H26.3529C26.7898 18.1182 27.2087 18.2917 27.5176 18.6006C27.8265 18.9095 28 19.3284 28 19.7652V26.353C28 26.7898 27.8265 27.2088 27.5176 27.5176C27.2087 27.8265 26.7898 28 26.3529 28H18.1176C17.6808 28 17.2619 27.8265 16.953 27.5176C16.6441 27.2088 16.4706 26.7898 16.4706 26.353V19.7652C16.4706 19.3284 16.6441 18.9095 16.953 18.6006C17.2619 18.2917 17.6808 18.1182 18.1176 18.1182H18.9412V16.4713C18.9416 15.8086 19.1418 15.1615 19.5157 14.6145C19.8896 14.0674 20.4198 13.6459 21.0371 13.4048C21.6544 13.1638 22.33 13.1146 22.9757 13.2635C23.6214 13.4124 24.2071 13.7526 24.6565 14.2396ZM20.5882 18.1166H23.8824V16.4696C23.8824 16.0328 23.7088 15.6139 23.3999 15.305C23.0911 14.9962 22.6721 14.8227 22.2353 14.8227C21.7985 14.8227 21.3795 14.9962 21.0706 15.305C20.7618 15.6139 20.5882 16.0328 20.5882 16.4696V18.1166ZM21.1565 23.6603C21.3164 23.9464 21.5833 24.1572 21.8987 24.2465C22.2141 24.3358 22.552 24.2961 22.8381 24.1362C23.1242 23.9764 23.3351 23.7094 23.4244 23.394C23.5137 23.0787 23.474 22.7408 23.3141 22.4547C23.1542 22.1686 22.8872 21.9577 22.5719 21.8684C22.2565 21.7792 21.9186 21.8188 21.6325 21.9787C21.3463 22.1386 21.1355 22.4056 21.0462 22.7209C20.9569 23.0363 20.9966 23.3742 21.1565 23.6603ZM18.7073 9.29875C18.8437 9.435 18.928 9.61481 18.9455 9.80682C18.9629 9.99884 18.9124 10.1909 18.8028 10.3495L18.7073 10.4648L12.1125 17.0592C11.9762 17.1956 11.7964 17.2799 11.6044 17.2974C11.4123 17.3148 11.2203 17.2644 11.0616 17.1548L10.9464 17.0592L7.65224 13.7653C7.50633 13.6201 7.42013 13.4254 7.41061 13.2198C7.40109 13.0141 7.46895 12.8124 7.60081 12.6543C7.73267 12.4962 7.91897 12.3932 8.12299 12.3657C8.32702 12.3381 8.53397 12.3879 8.70306 12.5054L8.81835 12.6009L11.5294 15.3135L17.5428 9.29875C17.6973 9.14437 17.9067 9.05764 18.1251 9.05764C18.3434 9.05764 18.5529 9.14437 18.7073 9.29875Z" fill="black"/>
</svg>
