<svg width="100" height="102" viewBox="0 0 100 102" fill="none" xmlns="http://www.w3.org/2000/svg">
<path d="M34.3374 40.5623L50.6928 52.8313C51.7061 53.5913 52.9692 53.9401 54.2288 53.8079C55.4885 53.6757 56.6516 53.0722 57.485 52.1185L89.5583 15.4619" stroke="#2AFF1A" stroke-width="4" stroke-linecap="round"/>
<path d="M94.5783 50.6024C94.5784 60.0428 91.6215 69.2461 86.1227 76.9197C80.624 84.5934 72.8596 90.3518 63.9202 93.3863C54.9808 96.4208 45.3154 96.5788 36.2816 93.8383C27.2477 91.0977 19.2993 85.5963 13.5525 78.1066C7.80576 70.6168 4.54946 61.5151 4.24094 52.0798C3.93242 42.6444 6.58719 33.3494 11.8324 25.5003C17.0776 17.6512 24.6497 11.6422 33.4852 8.31735C42.3207 4.99252 51.9758 4.51884 61.0943 6.96285" stroke="#2AFF1A" stroke-width="4" stroke-linecap="round"/>
</svg>
