<svg width="25" height="29" viewBox="0 0 25 29" fill="none" xmlns="http://www.w3.org/2000/svg">
<path d="M21.0632 29H3.93676C2.89267 29 1.89134 28.6157 1.15305 27.9315C0.414765 27.2474 0 26.3195 0 25.352V24.1453C0 18.3537 5.60752 13.6391 12.5 13.6391C19.3925 13.6391 25 18.3508 25 24.1453V25.352C25 26.3195 24.5852 27.2474 23.847 27.9315C23.1087 28.6157 22.1073 29 21.0632 29ZM12.5 15.1012C6.47518 15.1012 1.5747 19.1577 1.5747 24.1482V25.3549C1.5747 25.9354 1.82356 26.4922 2.26653 26.9026C2.70951 27.3131 3.3103 27.5437 3.93676 27.5437H21.0632C21.6897 27.5437 22.2905 27.3131 22.7335 26.9026C23.1764 26.4922 23.4253 25.9354 23.4253 25.3549V24.1453C23.4253 19.1577 18.5248 15.1012 12.5 15.1012ZM12.5 11.4517C11.2778 11.452 10.083 11.1165 9.06663 10.4875C8.05026 9.85848 7.25802 8.96432 6.7901 7.91808C6.32217 6.87184 6.19958 5.72051 6.43783 4.60971C6.67607 3.4989 7.26445 2.47851 8.12856 1.67759C8.99266 0.876664 10.0937 0.331183 11.2924 0.11013C12.491 -0.110922 13.7335 0.00238419 14.8627 0.435719C15.9919 0.869054 16.957 1.60295 17.6361 2.5446C18.3151 3.48625 18.6776 4.59334 18.6776 5.72587C18.6763 7.24386 18.0251 8.69937 16.8669 9.77288C15.7087 10.8464 14.1382 11.4502 12.5 11.4517ZM12.5 1.46065C11.5892 1.46037 10.6988 1.71039 9.94132 2.17911C9.18389 2.64783 8.59348 3.31418 8.24478 4.09387C7.89609 4.87357 7.80477 5.73157 7.98239 6.55936C8.16 7.38715 8.59856 8.14754 9.2426 8.74433C9.88664 9.34113 10.7072 9.74752 11.6005 9.9121C12.4939 10.0767 13.4198 9.99207 14.2612 9.66895C15.1026 9.34584 15.8217 8.79874 16.3275 8.09686C16.8334 7.39499 17.1032 6.56987 17.1029 5.72587C17.1016 4.59502 16.6163 3.51082 15.7533 2.71119C14.8904 1.91156 13.7204 1.46181 12.5 1.46065Z" fill="black"/>
</svg>
