<svg width="50" height="17" viewBox="0 0 50 17" fill="none" xmlns="http://www.w3.org/2000/svg">
<g clip-path="url(#clip0_40_80)">
<path d="M25.8588 5.1173C25.8303 7.34716 27.8633 8.59143 29.3947 9.3313C30.9682 10.0903 31.4967 10.5771 31.4904 11.256C31.4787 12.2948 30.2354 12.7534 29.0719 12.7712C27.042 12.8023 25.8617 12.2278 24.9234 11.7933L24.1922 15.1856C25.1336 15.6156 26.8768 15.9907 28.6844 16.0071C32.9275 16.0071 35.7035 13.9306 35.7186 10.7111C35.7352 6.62511 30.0178 6.39894 30.0568 4.57261C30.0703 4.01882 30.6033 3.42786 31.7713 3.2776C32.3494 3.2017 33.9453 3.14361 35.7547 3.96964L36.4648 0.687584C35.4918 0.336336 34.2412 -2.36956e-06 32.6842 -2.36956e-06C28.6904 -2.36956e-06 25.8814 2.10477 25.8588 5.1173ZM43.2887 0.2827C42.5139 0.2827 41.8609 0.730763 41.5695 1.41835L35.5084 15.7661H39.7484L40.5922 13.4543H45.7734L46.2629 15.7661H50L46.7389 0.2827H43.2887ZM43.8818 4.46534L45.1055 10.2795H41.7543L43.8818 4.46534ZM20.718 0.282893L17.3758 15.7659H21.4162L24.7568 0.282506L20.718 0.282893ZM14.7408 0.282893L10.5354 10.8213L8.83418 1.8606C8.63457 0.860303 7.84629 0.2827 6.9709 0.2827H0.0962891L0 0.732312C1.41133 1.03593 3.01484 1.52562 3.98633 2.04959C4.58086 2.36966 4.75039 2.64946 4.9457 3.41005L8.16777 15.7661H12.4375L18.9836 0.2827L14.7408 0.282893Z" fill="url(#paint0_linear_40_80)"/>
</g>
<defs>
<linearGradient id="paint0_linear_40_80" x1="2298.7" y1="48.1175" x2="2344.64" y2="-1595.86" gradientUnits="userSpaceOnUse">
<stop stop-color="#222357"/>
<stop offset="1" stop-color="#254AA5"/>
</linearGradient>
<clipPath id="clip0_40_80">
<rect width="50" height="16.0714" fill="white"/>
</clipPath>
</defs>
</svg>
