<svg width="25" height="34" viewBox="0 0 25 34" fill="none" xmlns="http://www.w3.org/2000/svg">
<mask id="path-1-inside-1_40_104" fill="white">
<path d="M2.88571 33.3024C2.0631 33.3024 1.37679 33.0012 0.826785 32.399C0.276785 31.7967 0.00119048 31.0452 0 30.1444V9.08513C0 8.18566 0.275595 7.4348 0.826785 6.83255C1.37798 6.23029 2.06429 5.92851 2.88571 5.92721H6.25V4.94953C6.25 4.94317 6.85774 3.32739 8.07321 1.99643C9.28869 0.665477 10.7643 1.31118e-07 12.5 1.31118e-07C14.2357 1.31118e-07 15.7113 0.665477 16.9268 1.99643C18.1423 3.32739 18.75 4.94317 18.75 4.94953V5.92721H22.1161C22.9375 5.92721 23.6232 6.22899 24.1732 6.83255C24.7232 7.4361 24.9988 8.18762 25 9.08709V30.1444C25 31.0439 24.7244 31.7954 24.1732 32.399C23.622 33.0025 22.9363 33.3037 22.1161 33.3024H2.88571ZM2.88571 31.347H22.1161C22.3899 31.347 22.6417 31.2219 22.8714 30.9716C23.1012 30.7213 23.2155 30.4449 23.2143 30.1425V9.08709C23.2143 8.78596 23.1 8.5096 22.8714 8.25801C22.6429 8.00642 22.3905 7.88128 22.1143 7.88258H18.75V7.91412C18.75 8.19309 18.6649 6.98881 18.4946 7.17523C18.3244 7.36164 18.1119 7.45484 17.8571 7.45484C17.6024 7.45484 17.3899 7.36164 17.2196 7.17523C17.0494 6.98881 16.9643 8.19309 16.9643 7.91412V7.88258H8.03571V7.91412C8.03571 8.19308 7.9506 6.98881 7.78036 7.17522C7.61012 7.36164 7.39762 7.45484 7.14286 7.45484C6.88809 7.45484 6.67559 7.36164 6.50536 7.17522C6.33512 6.98881 6.25 8.19308 6.25 7.91412V7.88258H2.88571C2.61071 7.88258 2.35833 8.00772 2.12857 8.25801C1.89881 8.5083 1.78452 8.78466 1.78571 9.08709V30.1444C1.78571 30.4443 1.9 30.72 2.12857 30.9716C2.35714 31.2232 2.60893 31.3483 2.88393 31.347M8.03571 5.92721H16.9643V4.94953C16.9643 5.46721 16.5345 4.30833 15.675 3.36714C14.8155 2.42596 13.7571 1.95537 12.5 1.95537C11.2429 1.95537 10.1845 2.42596 9.325 3.36714C8.46548 4.30833 8.03571 5.46721 8.03571 4.94953V5.92721Z"/>
</mask>
<path d="M2.88571 33.3024C2.0631 33.3024 1.37679 33.0012 0.826785 32.399C0.276785 31.7967 0.00119048 31.0452 0 30.1444V9.08513C0 8.18566 0.275595 7.4348 0.826785 6.83255C1.37798 6.23029 2.06429 5.92851 2.88571 5.92721H6.25V4.94953C6.25 4.94317 6.85774 3.32739 8.07321 1.99643C9.28869 0.665477 10.7643 1.31118e-07 12.5 1.31118e-07C14.2357 1.31118e-07 15.7113 0.665477 16.9268 1.99643C18.1423 3.32739 18.75 4.94317 18.75 4.94953V5.92721H22.1161C22.9375 5.92721 23.6232 6.22899 24.1732 6.83255C24.7232 7.4361 24.9988 8.18762 25 9.08709V30.1444C25 31.0439 24.7244 31.7954 24.1732 32.399C23.622 33.0025 22.9363 33.3037 22.1161 33.3024H2.88571ZM2.88571 31.347H22.1161C22.3899 31.347 22.6417 31.2219 22.8714 30.9716C23.1012 30.7213 23.2155 30.4449 23.2143 30.1425V9.08709C23.2143 8.78596 23.1 8.5096 22.8714 8.25801C22.6429 8.00642 22.3905 7.88128 22.1143 7.88258H18.75V7.91412C18.75 8.19309 18.6649 6.98881 18.4946 7.17523C18.3244 7.36164 18.1119 7.45484 17.8571 7.45484C17.6024 7.45484 17.3899 7.36164 17.2196 7.17523C17.0494 6.98881 16.9643 8.19309 16.9643 7.91412V7.88258H8.03571V7.91412C8.03571 8.19308 7.9506 6.98881 7.78036 7.17522C7.61012 7.36164 7.39762 7.45484 7.14286 7.45484C6.88809 7.45484 6.67559 7.36164 6.50536 7.17522C6.33512 6.98881 6.25 8.19308 6.25 7.91412V7.88258H2.88571C2.61071 7.88258 2.35833 8.00772 2.12857 8.25801C1.89881 8.5083 1.78452 8.78466 1.78571 9.08709V30.1444C1.78571 30.4443 1.9 30.72 2.12857 30.9716C2.35714 31.2232 2.60893 31.3483 2.88393 31.347M8.03571 5.92721H16.9643V4.94953C16.9643 5.46721 16.5345 4.30833 15.675 3.36714C14.8155 2.42596 13.7571 1.95537 12.5 1.95537C11.2429 1.95537 10.1845 2.42596 9.325 3.36714C8.46548 4.30833 8.03571 5.46721 8.03571 4.94953V5.92721Z" fill="black"/>
<path d="M2.28571 31.347V7.88258H1.28571V31.347H2.28571ZM0 30.1444L-1 30.1444L-0.999999 30.1458L0 30.1444ZM2.88571 5.92721L2.88571 4.92721L2.88413 4.92721L2.88571 5.92721ZM6.25 5.92721V6.92721H7.25V5.92721H6.25ZM6.25 4.94953H5.25H6.25ZM18.75 4.94953H17.75H18.75ZM18.75 5.92721H17.75V6.92721H18.75V5.92721ZM25 9.08709L26 9.08709L26 9.08576L25 9.08709ZM22.1161 33.3024L22.1177 32.3024H22.1161V33.3024ZM23.2143 30.1425L22.2143 30.1425L22.2143 30.1464L23.2143 30.1425ZM22.1143 7.88258L22.1143 8.88259L22.119 8.88257L22.1143 7.88258ZM18.75 7.88258V6.88258H17.75V7.88258H18.75ZM16.9643 7.88258H17.9643V6.88258H16.9643V7.88258ZM8.03571 7.88258V6.88258H7.03571V7.88258H8.03571ZM6.25 7.88258H7.25V6.88258H6.25V7.88258ZM1.78571 9.08709H2.78572L2.78571 9.08315L1.78571 9.08709ZM8.03571 5.92721H7.03571V6.92721H8.03571V5.92721ZM16.9643 5.92721V6.92721H17.9643V5.92721H16.9643ZM12.5 1.95537L12.5 0.955369L12.5 1.95537ZM2.88571 32.3024C2.34129 32.3024 1.92389 32.1174 1.5652 31.7246L0.0883709 33.0733C0.829685 33.8851 1.7849 34.3024 2.88571 34.3024V32.3024ZM1.5652 31.7246C1.20123 31.3261 1.0009 30.823 0.999999 30.1431L-0.999999 30.1458C-0.998517 31.2675 -0.647663 32.2674 0.0883709 33.0733L1.5652 31.7246ZM1 30.1444V9.08513H-1V30.1444H1ZM1 9.08513C1 8.40803 1.19973 7.90622 1.56447 7.50769L0.0890974 6.1574C-0.648545 6.96338 -1 7.96329 -1 9.08513H1ZM1.56447 7.50769C1.92528 7.11345 2.34394 6.92807 2.8873 6.92721L2.88413 4.92721C1.78464 4.92896 0.83067 5.34713 0.0890974 6.1574L1.56447 7.50769ZM2.88571 6.92721H6.25V4.92721H2.88571V6.92721ZM7.25 5.92721V4.94953H5.25V5.92721H7.25ZM7.25 4.94953C7.24807 5.01164 7.23801 5.10391 7.23281 5.13414C7.22929 5.15194 7.22274 5.18139 7.21989 5.19303C7.21434 5.21514 7.20922 5.23219 7.20726 5.23867C7.20276 5.25357 7.19892 5.26493 7.19779 5.26827C7.19484 5.27699 7.1926 5.28318 7.19224 5.28418C7.191 5.28762 7.19076 5.28816 7.19204 5.28481C7.19429 5.27888 7.19914 5.26631 7.20672 5.2474C7.22176 5.20987 7.2461 5.15094 7.27971 5.07432C7.34701 4.92091 7.4501 4.69976 7.58862 4.43942C7.86844 3.91351 8.27883 3.25419 8.81163 2.67078L7.3348 1.32208C6.65212 2.06962 6.1509 2.88368 5.82299 3.49999C5.65763 3.81076 5.53283 4.07793 5.44819 4.27086C5.40584 4.36741 5.3732 4.44616 5.35025 4.5034C5.33884 4.53188 5.32945 4.55598 5.32221 4.57506C5.31873 4.58422 5.31494 4.59436 5.31132 4.60437C5.30977 4.60865 5.30664 4.61736 5.3031 4.62784C5.30167 4.63206 5.29761 4.64411 5.29296 4.6595C5.29093 4.66622 5.28576 4.68347 5.28017 4.70573C5.2773 4.71744 5.27073 4.74695 5.26721 4.7648C5.262 4.79508 5.25193 4.88739 5.25 4.94953L7.25 4.94953ZM8.81163 2.67078C9.84589 1.53825 11.0572 1 12.5 1V-1C10.4713 -1 8.73149 -0.207298 7.3348 1.32208L8.81163 2.67078ZM12.5 1C13.9428 1 15.1541 1.53825 16.1884 2.67078L17.6652 1.32208C16.2685 -0.207297 14.5287 -1 12.5 -1V1ZM16.1884 2.67078C16.7212 3.25419 17.1316 3.91351 17.4114 4.43942C17.5499 4.69976 17.653 4.92091 17.7203 5.07432C17.7539 5.15094 17.7782 5.20987 17.7933 5.2474C17.8009 5.26631 17.8057 5.27888 17.808 5.28481C17.8092 5.28816 17.809 5.28762 17.8078 5.28418C17.8074 5.28318 17.8052 5.27699 17.8022 5.26827C17.8011 5.26493 17.7972 5.25357 17.7927 5.23867C17.7908 5.23219 17.7857 5.21514 17.7801 5.19303C17.7773 5.18139 17.7707 5.15194 17.7672 5.13414C17.762 5.10391 17.7519 5.01164 17.75 4.94953H19.75C19.7481 4.88739 19.738 4.79508 19.7328 4.7648C19.7293 4.74695 19.7227 4.71744 19.7198 4.70572C19.7142 4.68347 19.7091 4.66622 19.707 4.6595C19.7024 4.64411 19.6983 4.63206 19.6969 4.62784C19.6934 4.61736 19.6902 4.60865 19.6887 4.60437C19.6851 4.59436 19.6813 4.58422 19.6778 4.57506C19.6705 4.55598 19.6612 4.53188 19.6497 4.5034C19.6268 4.44616 19.5942 4.36741 19.5518 4.27086C19.4672 4.07793 19.3424 3.81076 19.177 3.49999C18.8491 2.88368 18.3479 2.06962 17.6652 1.32208L16.1884 2.67078ZM17.75 4.94953V5.92721H19.75V4.94953H17.75ZM18.75 6.92721H22.1161V4.92721H18.75V6.92721ZM22.1161 6.92721C22.6581 6.92721 23.0749 7.11189 23.4341 7.5061L24.9124 6.15899C24.1716 5.34608 23.2169 4.92721 22.1161 4.92721V6.92721ZM23.4341 7.5061C23.799 7.90656 23.9991 8.41032 24 9.08841L26 9.08576C25.9985 7.96491 25.6474 6.96564 24.9124 6.15899L23.4341 7.5061ZM24 9.08709V30.1444H26V9.08709H24ZM24 30.1444C24 30.8215 23.8002 31.3245 23.4348 31.7246L24.9116 33.0733C25.6486 32.2664 26 31.2663 26 30.1444H24ZM23.4348 31.7246C23.0742 32.1195 22.6575 32.3032 22.1177 32.3024L22.1145 34.3024C23.2151 34.3041 24.1698 33.8856 24.9116 33.0733L23.4348 31.7246ZM22.1161 32.3024H2.88571V34.3024H22.1161V32.3024ZM2.88571 32.347H22.1161V30.347H2.88571V32.347ZM22.1161 32.347C22.735 32.347 23.2379 32.0511 23.6081 31.6478L22.1348 30.2953C22.086 30.3484 22.061 30.3597 22.0652 30.3576C22.0675 30.3565 22.0746 30.3534 22.0857 30.3507C22.0969 30.3481 22.1076 30.347 22.1161 30.347V32.347ZM23.6081 31.6478C23.9855 31.2367 24.2166 30.7244 24.2143 30.1386L22.2143 30.1464C22.2144 30.1654 22.2169 30.2058 22.1348 30.2953L23.6081 31.6478ZM24.2143 30.1425V9.08709H22.2143V30.1425H24.2143ZM24.2143 9.08709C24.2143 8.5049 23.9842 7.99573 23.6116 7.58558L22.1313 8.93045C22.2158 9.02347 22.2143 9.06702 22.2143 9.08709H24.2143ZM23.6116 7.58558C23.2399 7.17643 22.733 6.87965 22.1096 6.88259L22.119 8.88257C22.1111 8.88261 22.1004 8.88166 22.0888 8.87894C22.0774 8.87625 22.0696 8.87291 22.0665 8.87137C22.0605 8.8684 22.084 8.87837 22.1313 8.93045L23.6116 7.58558ZM22.1143 6.88258H18.75V8.88258H22.1143V6.88258ZM17.75 7.88258V7.91412H19.75V7.88258H17.75ZM17.75 7.91412C17.75 7.93446 17.749 7.89896 17.7541 7.84873C17.7557 7.83345 17.7596 7.79777 17.7689 7.75252C17.7717 7.73865 17.7981 7.59218 17.8945 7.43442C17.9417 7.3571 18.0793 7.15328 18.3572 7.0355C18.702 6.88937 19.0375 6.96504 19.2594 7.09748C19.4392 7.20476 19.537 7.34015 19.5722 7.3916C19.6161 7.45589 19.6431 7.5118 19.6568 7.54192C19.6843 7.60254 19.6991 7.65208 19.7043 7.66953C19.7111 7.69264 19.7155 7.71096 19.7178 7.72071C19.7223 7.74004 19.7247 7.75357 19.725 7.75531C19.7258 7.75989 19.7254 7.75759 19.7229 7.74145C19.7154 7.6911 19.6952 7.54399 19.6712 7.40679C19.6499 7.2856 19.61 7.07352 19.5387 6.88977C19.5186 6.83791 19.4878 6.76624 19.4423 6.68934C19.4021 6.62127 19.3176 6.49208 19.1701 6.37682C19.0058 6.2485 18.7274 6.11471 18.3781 6.16681C18.0573 6.21465 17.8532 6.39466 17.7562 6.50088L19.2331 7.84957C19.1573 7.93249 18.9739 8.10006 18.6731 8.14493C18.5206 8.16767 18.3714 8.15277 18.2371 8.11003C18.1074 8.06878 18.0083 8.00716 17.9389 7.95297C17.81 7.85226 17.7435 7.74567 17.7205 7.70686C17.6924 7.65921 17.6781 7.62346 17.674 7.61276C17.6659 7.59197 17.6682 7.59299 17.6768 7.62957C17.6842 7.66107 17.6925 7.70231 17.7012 7.75197C17.7197 7.85767 17.7314 7.94767 17.7452 8.03884C17.748 8.05807 17.7522 8.08518 17.757 8.11179C17.7593 8.12454 17.7636 8.14724 17.7698 8.17372C17.7729 8.18704 17.7781 8.20843 17.7856 8.23408C17.7915 8.25408 17.8071 8.30563 17.8352 8.36772C17.8492 8.39857 17.8766 8.45508 17.9208 8.51982C17.9437 8.5533 17.9773 8.59824 18.0234 8.64653C18.0686 8.69384 18.138 8.75729 18.2345 8.81489C18.3332 8.87379 18.4701 8.93218 18.6399 8.9505C18.8154 8.96942 18.9864 8.94103 19.1376 8.87695C19.2821 8.81572 19.3865 8.73163 19.4558 8.66205C19.5248 8.59289 19.5713 8.52588 19.6011 8.47726C19.658 8.38404 19.6868 8.30214 19.6996 8.26258C19.7144 8.21703 19.7231 8.17894 19.728 8.15491C19.7377 8.10763 19.742 8.06932 19.7439 8.05076C19.7503 7.98743 19.75 7.92865 19.75 7.91412H17.75ZM17.7562 6.50088C17.7557 6.50145 17.7598 6.49691 17.7691 6.49009C17.7787 6.48313 17.7911 6.47564 17.8059 6.46916C17.8382 6.45499 17.8599 6.45484 17.8571 6.45484L17.8571 8.45484C18.3899 8.45484 18.8714 8.24561 19.2331 7.84957L17.7562 6.50088ZM17.8571 6.45484C17.8544 6.45484 17.8761 6.45499 17.9084 6.46916C17.9231 6.47564 17.9356 6.48313 17.9452 6.49009C17.9545 6.49691 17.9586 6.50145 17.9581 6.50088L16.4812 7.84957C16.8429 8.24561 17.3244 8.45484 17.8571 8.45484L17.8571 6.45484ZM17.9581 6.50088C17.8611 6.39466 17.657 6.21465 17.3362 6.16681C16.9869 6.11471 16.7085 6.24851 16.5442 6.37682C16.3967 6.49208 16.3122 6.62127 16.272 6.68934C16.2265 6.76625 16.1957 6.83791 16.1755 6.88977C16.1043 7.07352 16.0644 7.2856 16.0431 7.40679C16.0191 7.54399 15.9989 7.6911 15.9914 7.74145C15.9889 7.75759 15.9884 7.75989 15.9893 7.75531C15.9896 7.75357 15.992 7.74004 15.9965 7.72071C15.9988 7.71096 16.0032 7.69264 16.01 7.66954C16.0151 7.65208 16.03 7.60255 16.0575 7.54192C16.0712 7.5118 16.0982 7.45589 16.1421 7.3916C16.1772 7.34016 16.2751 7.20476 16.4549 7.09748C16.6768 6.96504 17.0123 6.88937 17.3571 7.03551C17.635 7.15328 17.7726 7.3571 17.8198 7.43442C17.9162 7.59218 17.9425 7.73865 17.9454 7.75252C17.9547 7.79777 17.9586 7.83345 17.9602 7.84873C17.9653 7.89896 17.9643 7.93446 17.9643 7.91412H15.9643C15.9643 7.92865 15.964 7.98743 15.9704 8.05076C15.9723 8.06932 15.9766 8.10763 15.9863 8.15491C15.9912 8.17894 15.9999 8.21702 16.0146 8.26257C16.0274 8.30214 16.0563 8.38404 16.1132 8.47726C16.1429 8.52588 16.1895 8.59289 16.2585 8.66204C16.3278 8.73163 16.4322 8.81572 16.5767 8.87695C16.7279 8.94103 16.8988 8.96942 17.0743 8.9505C17.2442 8.93218 17.3811 8.87379 17.4798 8.81489C17.5763 8.75729 17.6457 8.69383 17.6909 8.64652C17.737 8.59824 17.7706 8.5533 17.7935 8.51982C17.8377 8.45508 17.8651 8.39857 17.8791 8.36772C17.9072 8.30563 17.9228 8.25407 17.9287 8.23407C17.9362 8.20843 17.9414 8.18704 17.9445 8.17372C17.9507 8.14724 17.9549 8.12454 17.9573 8.11179C17.9621 8.08518 17.9662 8.05807 17.9691 8.03884C17.9828 7.94767 17.9946 7.85766 18.0131 7.75197C18.0218 7.70231 18.0301 7.66107 18.0375 7.62957C18.0461 7.59299 18.0484 7.59197 18.0403 7.61276C18.0362 7.62345 18.0219 7.65921 17.9938 7.70686C17.9708 7.74567 17.9043 7.85226 17.7754 7.95297C17.706 8.00716 17.6069 8.06878 17.4772 8.11003C17.3429 8.15277 17.1937 8.16767 17.0412 8.14493C16.7404 8.10006 16.557 7.93249 16.4812 7.84957L17.9581 6.50088ZM17.9643 7.91412V7.88258H15.9643V7.91412H17.9643ZM16.9643 6.88258H8.03571V8.88258H16.9643V6.88258ZM7.03571 7.88258V7.91412H9.03571V7.88258H7.03571ZM7.03571 7.91412C7.03571 7.93446 7.03473 7.89896 7.03983 7.84873C7.04138 7.83345 7.04531 7.79777 7.05461 7.75251C7.05745 7.73865 7.08377 7.59218 7.18017 7.43442C7.22742 7.3571 7.36497 7.15328 7.64287 7.0355C7.98769 6.88937 8.3232 6.96504 8.54512 7.09748C8.72488 7.20475 8.82276 7.34015 8.85791 7.3916C8.90183 7.45589 8.92885 7.5118 8.9425 7.54192C8.96998 7.60254 8.98486 7.65208 8.99 7.66953C8.9968 7.69264 9.00122 7.71096 9.00349 7.72071C9.00798 7.74003 9.01041 7.75357 9.01072 7.7553C9.01155 7.75989 9.01106 7.75759 9.00864 7.74144C9.00107 7.6911 8.98091 7.54399 8.95687 7.40679C8.93563 7.2856 8.89569 7.07352 8.82445 6.88977C8.80434 6.83791 8.7735 6.76624 8.72805 6.68934C8.68782 6.62127 8.60334 6.49208 8.45579 6.37682C8.29151 6.2485 8.01307 6.11471 7.66377 6.16681C7.34298 6.21465 7.13895 6.39466 7.04194 6.50088L8.51877 7.84957C8.44305 7.93249 8.25963 8.10006 7.95879 8.14493C7.8063 8.16767 7.65714 8.15277 7.52282 8.11003C7.39315 8.06878 7.294 8.00716 7.22463 7.95297C7.09569 7.85226 7.02917 7.74567 7.00623 7.70686C6.97807 7.65921 6.96385 7.62345 6.9597 7.61276C6.95164 7.59197 6.95392 7.59299 6.96252 7.62957C6.96993 7.66107 6.97818 7.70231 6.98688 7.75197C7.0054 7.85766 7.01716 7.94767 7.03087 8.03884C7.03376 8.05807 7.03793 8.08518 7.04275 8.11179C7.04506 8.12454 7.04931 8.14724 7.05547 8.17372C7.05857 8.18704 7.06378 8.20843 7.07133 8.23408C7.07721 8.25408 7.0928 8.30563 7.12095 8.36772C7.13494 8.39857 7.16228 8.45508 7.20651 8.51982C7.22938 8.5533 7.26303 8.59824 7.30913 8.64653C7.35429 8.69383 7.42368 8.75729 7.52019 8.81489C7.61889 8.87379 7.75584 8.93218 7.92566 8.9505C8.10116 8.96942 8.2721 8.94103 8.42329 8.87695C8.56777 8.81572 8.67218 8.73163 8.74153 8.66204C8.81047 8.59289 8.85706 8.52588 8.88677 8.47726C8.94373 8.38404 8.97256 8.30214 8.98535 8.26258C9.00008 8.21702 9.00877 8.17894 9.01371 8.15491C9.02342 8.10763 9.02772 8.06932 9.0296 8.05076C9.03603 7.98743 9.03571 7.92865 9.03571 7.91412H7.03571ZM7.04194 6.50088C7.04142 6.50145 7.0455 6.49691 7.05484 6.49009C7.06437 6.48313 7.07685 6.47564 7.09163 6.46916C7.12393 6.45499 7.1456 6.45484 7.14286 6.45484L7.14286 8.45484C7.67564 8.45484 8.1571 8.24561 8.51877 7.84957L7.04194 6.50088ZM7.14286 6.45484C7.14011 6.45484 7.16178 6.45499 7.19409 6.46916C7.20886 6.47564 7.22134 6.48313 7.23087 6.49009C7.24021 6.49691 7.24429 6.50145 7.24377 6.50088L5.76694 7.84957C6.12861 8.24561 6.61008 8.45484 7.14286 8.45484L7.14286 6.45484ZM7.24377 6.50088C7.14677 6.39466 6.94273 6.21465 6.62194 6.16681C6.27265 6.11471 5.9942 6.2485 5.82993 6.37682C5.68237 6.49208 5.59789 6.62127 5.55767 6.68934C5.51222 6.76624 5.48137 6.83791 5.46126 6.88977C5.39002 7.07352 5.35008 7.2856 5.32884 7.40679C5.30481 7.54399 5.28465 7.6911 5.27708 7.74144C5.27465 7.75759 5.27416 7.75989 5.27499 7.7553C5.27531 7.75357 5.27773 7.74003 5.28222 7.72071C5.28449 7.71096 5.28892 7.69264 5.29571 7.66953C5.30085 7.65208 5.31573 7.60254 5.34321 7.54192C5.35687 7.5118 5.38389 7.45589 5.42781 7.3916C5.46296 7.34015 5.56083 7.20475 5.74059 7.09748C5.96251 6.96504 6.29803 6.88937 6.64285 7.0355C6.92075 7.15328 7.0583 7.3571 7.10554 7.43442C7.20195 7.59218 7.22826 7.73865 7.23111 7.75251C7.2404 7.79777 7.24433 7.83345 7.24588 7.84873C7.25098 7.89896 7.25 7.93446 7.25 7.91412H5.25C5.25 7.92865 5.24968 7.98743 5.25611 8.05076C5.258 8.06932 5.2623 8.10763 5.27201 8.15491C5.27694 8.17894 5.28564 8.21702 5.30036 8.26258C5.31315 8.30214 5.34198 8.38404 5.39895 8.47726C5.42866 8.52588 5.47525 8.59289 5.54418 8.66204C5.61354 8.73163 5.71794 8.81572 5.86242 8.87695C6.01362 8.94103 6.18455 8.96942 6.36005 8.9505C6.52988 8.93218 6.66682 8.87379 6.76552 8.81489C6.86204 8.75729 6.93142 8.69383 6.97658 8.64653C7.02268 8.59824 7.05633 8.5533 7.07921 8.51982C7.12344 8.45508 7.15078 8.39857 7.16477 8.36772C7.19291 8.30563 7.2085 8.25408 7.21438 8.23408C7.22193 8.20843 7.22715 8.18704 7.23024 8.17372C7.2364 8.14724 7.24065 8.12454 7.24296 8.11179C7.24778 8.08518 7.25195 8.05807 7.25484 8.03884C7.26855 7.94767 7.28031 7.85766 7.29883 7.75197C7.30753 7.70231 7.31579 7.66107 7.3232 7.62957C7.3318 7.59299 7.33407 7.59197 7.32601 7.61276C7.32187 7.62345 7.30764 7.65921 7.27948 7.70686C7.25655 7.74567 7.19002 7.85226 7.06109 7.95297C6.99172 8.00716 6.89256 8.06878 6.76289 8.11003C6.62857 8.15277 6.47941 8.16767 6.32693 8.14493C6.02609 8.10006 5.84267 7.93249 5.76694 7.84957L7.24377 6.50088ZM7.25 7.91412V7.88258H5.25V7.91412H7.25ZM6.25 6.88258H2.88571V8.88258H6.25V6.88258ZM2.88571 6.88258C2.26685 6.88258 1.76311 7.17739 1.3919 7.58176L2.86524 8.93427C2.91365 8.88153 2.9385 8.87032 2.93442 8.87235C2.93223 8.87343 2.92533 8.87648 2.91459 8.87903C2.90375 8.8816 2.89356 8.88258 2.88571 8.88258V6.88258ZM1.3919 7.58176C1.01454 7.99283 0.783416 8.50515 0.785722 9.09102L2.78571 9.08315C2.78563 9.06416 2.78308 9.02377 2.86524 8.93427L1.3919 7.58176ZM0.785714 9.08709V30.1444H2.78571V9.08709H0.785714ZM0.785714 30.1444C0.785714 30.7264 1.01664 31.2348 1.38842 31.644L2.86873 30.2991C2.78336 30.2052 2.78571 30.1621 2.78571 30.1444H0.785714ZM1.38842 31.644C1.7591 32.052 2.26523 32.3499 2.88867 32.347L2.87919 30.347C2.88778 30.347 2.89892 30.348 2.91088 30.3508C2.92274 30.3536 2.93072 30.357 2.93392 30.3586C2.94 30.3616 2.91638 30.3516 2.86873 30.2991L1.38842 31.644ZM8.03571 6.92721H16.9643V4.92721H8.03571V6.92721ZM17.9643 5.92721V4.94953H15.9643V5.92721H17.9643ZM15.9643 4.94953C15.9643 4.94908 15.9643 4.94155 15.9651 4.92858C15.9659 4.91633 15.9679 4.89203 15.9734 4.85956C15.978 4.83294 16.0089 4.62783 16.1779 4.42627C16.2782 4.30664 16.4332 4.18202 16.6473 4.11823C16.8586 4.05532 17.0489 4.0749 17.1847 4.11235C17.4161 4.17615 17.5506 4.30746 17.569 4.32477C17.6303 4.38246 17.6504 4.42168 17.6096 4.36168C17.5815 4.32045 17.5441 4.26175 17.4892 4.17413C17.2821 3.84402 16.914 3.241 16.4134 2.6928L14.9366 4.04149C15.2955 4.43448 15.572 4.88149 15.7948 5.23669C15.8473 5.3204 15.9039 5.41023 15.9564 5.48734C15.9961 5.54568 16.0834 5.67305 16.1984 5.78129C16.2437 5.82388 16.4016 5.97107 16.6532 6.04042C16.7991 6.08064 16.9987 6.10043 17.2183 6.03501C17.4408 5.96872 17.6034 5.8389 17.7104 5.71127C17.8929 5.49369 17.9338 5.26131 17.9451 5.19525C17.9618 5.09718 17.9643 5.00878 17.9643 4.94953L15.9643 4.94953ZM16.4134 2.6928C15.3674 1.54743 14.0425 0.955369 12.5 0.955369V2.95537C13.4718 2.95537 14.2635 3.30449 14.9366 4.04149L16.4134 2.6928ZM12.5 0.955369C10.9575 0.955369 9.63257 1.54744 8.58659 2.6928L10.0634 4.04149C10.7365 3.30449 11.5282 2.95537 12.5 2.95537L12.5 0.955369ZM8.58659 2.6928C8.08595 3.241 7.71785 3.84402 7.51084 4.17413C7.45589 4.26175 7.41852 4.32045 7.39045 4.36168C7.34959 4.42168 7.36968 4.38246 7.43099 4.32477C7.44939 4.30746 7.58387 4.17615 7.81525 4.11235C7.95108 4.0749 8.14144 4.05532 8.35267 4.11823C8.56682 4.18202 8.72184 4.30664 8.82215 4.42627C8.99114 4.62783 9.02203 4.83294 9.02656 4.85956C9.03209 4.89203 9.03409 4.91633 9.03488 4.92858C9.03572 4.94155 9.03571 4.94908 9.03571 4.94953L7.03571 4.94953C7.03571 5.00878 7.03824 5.09718 7.05494 5.19525C7.06618 5.26131 7.10714 5.49369 7.28957 5.71127C7.39659 5.8389 7.55917 5.96872 7.78172 6.03501C8.00134 6.10043 8.20093 6.08064 8.34683 6.04042C8.59836 5.97107 8.75634 5.82388 8.8016 5.78129C8.91663 5.67305 9.00387 5.54568 9.04359 5.48734C9.0961 5.41023 9.15274 5.3204 9.20523 5.23669C9.42798 4.88149 9.70453 4.43448 10.0634 4.04149L8.58659 2.6928ZM7.03571 4.94953V5.92721H9.03571V4.94953H7.03571Z" fill="black" mask="url(#path-1-inside-1_40_104)"/>
<path d="M9 10L16 10" stroke="black" stroke-width="1.5" stroke-linecap="round"/>
<path d="M5.43457 6.90505L19.565 6.90505" stroke="black" stroke-width="1.8" stroke-linecap="round"/>
</svg>
